<svg width="48" height="48" viewBox="0 0 48 48" fill="none" xmlns="http://www.w3.org/2000/svg">
<circle cx="24" cy="24" r="24" fill="#FFEDF1"/>
<path d="M32.9997 18.3168C32.9797 18.3168 32.9497 18.3168 32.9197 18.3168C27.6297 17.7908 22.3497 17.5923 17.1197 18.1183L15.0797 18.3168C14.6597 18.3565 14.2897 18.0588 14.2497 17.6419C14.2097 17.2251 14.5097 16.8678 14.9197 16.8281L16.9597 16.6296C22.2797 16.0937 27.6697 16.3021 33.0697 16.8281C33.4797 16.8678 33.7797 17.235 33.7397 17.6419C33.7097 18.029 33.3797 18.3168 32.9997 18.3168Z" fill="#D05051"/>
<path d="M20.5007 17.3142C20.4607 17.3142 20.4207 17.3142 20.3707 17.3042C19.9707 17.2348 19.6907 16.8477 19.7607 16.4507L19.9807 15.1506C20.1407 14.1979 20.3607 12.8779 22.6907 12.8779H25.3107C27.6507 12.8779 27.8707 14.2475 28.0207 15.1605L28.2407 16.4507C28.3107 16.8576 28.0307 17.2447 27.6307 17.3042C27.2207 17.3737 26.8307 17.0958 26.7707 16.6988L26.5507 15.4087C26.4107 14.5452 26.3807 14.3765 25.3207 14.3765H22.7007C21.6407 14.3765 21.6207 14.5155 21.4707 15.3987L21.2407 16.6889C21.1807 17.0561 20.8607 17.3142 20.5007 17.3142Z" fill="#D05051"/>
<path d="M27.2104 34.2148H20.7904C17.3004 34.2148 17.1604 32.2994 17.0504 30.7512L16.4004 20.7573C16.3704 20.3504 16.6904 19.9931 17.1004 19.9633C17.5204 19.9435 17.8704 20.2511 17.9004 20.658L18.5504 30.6519C18.6604 32.1604 18.7004 32.7261 20.7904 32.7261H27.2104C29.3104 32.7261 29.3504 32.1604 29.4504 30.6519L30.1004 20.658C30.1304 20.2511 30.4904 19.9435 30.9004 19.9633C31.3104 19.9931 31.6304 20.3404 31.6004 20.7573L30.9504 30.7512C30.8404 32.2994 30.7004 34.2148 27.2104 34.2148Z" fill="#D05051"/>
<path d="M25.6601 28.7567H22.3301C21.9201 28.7567 21.5801 28.4193 21.5801 28.0124C21.5801 27.6055 21.9201 27.2681 22.3301 27.2681H25.6601C26.0701 27.2681 26.4101 27.6055 26.4101 28.0124C26.4101 28.4193 26.0701 28.7567 25.6601 28.7567Z" fill="#D05051"/>
<path d="M26.5 24.787H21.5C21.09 24.787 20.75 24.4496 20.75 24.0427C20.75 23.6358 21.09 23.2983 21.5 23.2983H26.5C26.91 23.2983 27.25 23.6358 27.25 24.0427C27.25 24.4496 26.91 24.787 26.5 24.787Z" fill="#D05051"/>
</svg>
