<svg width="22" height="22" viewBox="0 0 22 22" fill="none" xmlns="http://www.w3.org/2000/svg">
<path d="M19.25 5.48177C16.1975 5.17927 13.1267 5.02344 10.065 5.02344C8.25 5.02344 6.435 5.1151 4.62 5.29844L2.75 5.48177" stroke="#DF250B" stroke-width="1.5" stroke-linecap="round" stroke-linejoin="round"/>
<path d="M7.79175 4.556L7.99341 3.35516C8.14008 2.48433 8.25008 1.8335 9.79925 1.8335H12.2009C13.7501 1.8335 13.8692 2.521 14.0067 3.36433L14.2084 4.556" stroke="#DF250B" stroke-width="1.5" stroke-linecap="round" stroke-linejoin="round"/>
<path d="M17.279 8.37842L16.6832 17.6093C16.5824 19.0484 16.4999 20.1668 13.9424 20.1668H8.05737C5.49987 20.1668 5.41737 19.0484 5.31654 17.6093L4.7207 8.37842" stroke="#DF250B" stroke-width="1.5" stroke-linecap="round" stroke-linejoin="round"/>
<path d="M9.46924 15.125H12.5217" stroke="#DF250B" stroke-width="1.5" stroke-linecap="round" stroke-linejoin="round"/>
<path d="M8.70825 11.4585H13.2916" stroke="#DF250B" stroke-width="1.5" stroke-linecap="round" stroke-linejoin="round"/>
</svg>
