<svg width="40" height="40" viewBox="0 0 40 40" fill="none" xmlns="http://www.w3.org/2000/svg">
<g filter="url(#filter0_d_6834_18137)">
<circle cx="20" cy="16" r="12" fill="white"/>
</g>
<path d="M20.7346 11.1002L15.9455 16.1694C15.7646 16.3619 15.5896 16.741 15.5546 17.0035L15.3388 18.8935C15.263 19.576 15.753 20.0427 16.4296 19.926L18.308 19.6052C18.5705 19.5585 18.938 19.366 19.1188 19.1677L23.908 14.0985C24.7363 13.2235 25.1096 12.226 23.8205 11.0069C22.5371 9.79937 21.563 10.2252 20.7346 11.1002Z" stroke="#2A72AC" stroke-miterlimit="10" stroke-linecap="round" stroke-linejoin="round"/>
<path d="M19.9362 11.9458C20.1871 13.5558 21.4937 14.7866 23.1154 14.95" stroke="#2A72AC" stroke-miterlimit="10" stroke-linecap="round" stroke-linejoin="round"/>
<path d="M14.75 21.8335H25.25" stroke="#2A72AC" stroke-miterlimit="10" stroke-linecap="round" stroke-linejoin="round"/>
<defs>
<filter id="filter0_d_6834_18137" x="0" y="0" width="40" height="40" filterUnits="userSpaceOnUse" color-interpolation-filters="sRGB">
<feFlood flood-opacity="0" result="BackgroundImageFix"/>
<feColorMatrix in="SourceAlpha" type="matrix" values="0 0 0 0 0 0 0 0 0 0 0 0 0 0 0 0 0 0 127 0" result="hardAlpha"/>
<feOffset dy="4"/>
<feGaussianBlur stdDeviation="4"/>
<feComposite in2="hardAlpha" operator="out"/>
<feColorMatrix type="matrix" values="0 0 0 0 0 0 0 0 0 0 0 0 0 0 0 0 0 0 0.1 0"/>
<feBlend mode="normal" in2="BackgroundImageFix" result="effect1_dropShadow_6834_18137"/>
<feBlend mode="normal" in="SourceGraphic" in2="effect1_dropShadow_6834_18137" result="shape"/>
</filter>
</defs>
</svg>
