<svg width="61" height="60" viewBox="0 0 61 60" fill="none" xmlns="http://www.w3.org/2000/svg">
<path d="M30.5 42.5C31.2083 42.5 31.8025 42.26 32.2825 41.78C32.7625 41.3 33.0017 40.7067 33 40C32.9983 39.2933 32.7583 38.7 32.28 38.22C31.8017 37.74 31.2083 37.5 30.5 37.5C29.7917 37.5 29.1983 37.74 28.72 38.22C28.2417 38.7 28.0017 39.2933 28 40C27.9983 40.7067 28.2383 41.3008 28.72 41.7825C29.2017 42.2642 29.795 42.5033 30.5 42.5ZM28 30C28 31.3807 29.1193 32.5 30.5 32.5C31.8807 32.5 33 31.3807 33 30V20C33 18.6193 31.8807 17.5 30.5 17.5C29.1193 17.5 28 18.6193 28 20V30ZM30.5 55C27.0417 55 23.7917 54.3433 20.75 53.03C17.7083 51.7167 15.0625 49.9358 12.8125 47.6875C10.5625 45.4392 8.78167 42.7933 7.47 39.75C6.15834 36.7067 5.50167 33.4567 5.5 30C5.49834 26.5433 6.155 23.2933 7.47 20.25C8.785 17.2067 10.5658 14.5608 12.8125 12.3125C15.0592 10.0642 17.705 8.28333 20.75 6.97C23.795 5.65667 27.045 5 30.5 5C33.955 5 37.205 5.65667 40.25 6.97C43.295 8.28333 45.9408 10.0642 48.1875 12.3125C50.4342 14.5608 52.2158 17.2067 53.5325 20.25C54.8492 23.2933 55.505 26.5433 55.5 30C55.495 33.4567 54.8383 36.7067 53.53 39.75C52.2217 42.7933 50.4408 45.4392 48.1875 47.6875C45.9342 49.9358 43.2883 51.7175 40.25 53.0325C37.2117 54.3475 33.9617 55.0033 30.5 55Z" fill="#D05051"/>
</svg>
