<svg width="40" height="40" viewBox="0 0 40 40" fill="none" xmlns="http://www.w3.org/2000/svg">
<rect width="40" height="40" rx="8" fill="white" fill-opacity="0.04"/>
<path d="M13.4 10.1001H26.6C27.7 10.1001 28.6 11.0001 28.6 12.1001V14.3001C28.6 15.1001 28.1 16.1001 27.6 16.6001L23.3 20.4001C22.7 20.9001 22.3 21.9001 22.3 22.7001V27.0001C22.3 27.6001 21.9 28.4001 21.4 28.7001L20 29.6001C18.7 30.4001 16.9 29.5001 16.9 27.9001V22.6001C16.9 21.9001 16.5 21.0001 16.1 20.5001L12.3 16.5001C11.8 16.0001 11.4 15.1001 11.4 14.5001V12.2001C11.4 11.0001 12.3 10.1001 13.4 10.1001Z" stroke="#061018" stroke-width="1.5" stroke-miterlimit="10" stroke-linecap="round" stroke-linejoin="round"/>
<path d="M18.93 10.1001L14 18.0001" stroke="#061018" stroke-width="1.5" stroke-miterlimit="10" stroke-linecap="round" stroke-linejoin="round"/>
</svg>
