<svg width="60" height="60" viewBox="0 0 60 60" fill="none" xmlns="http://www.w3.org/2000/svg">
<path d="M30 0C13.4581 0 0 13.4577 0 29.9998C0 46.542 13.4581 60 30 60C46.5419 60 60 46.542 60 29.9998C60 13.4577 46.5422 0 30 0ZM47.2265 24.9326L28.3791 43.78C27.5777 44.5814 26.5124 45.0225 25.3792 45.0225C24.2459 45.0225 23.1806 44.5814 22.3792 43.78L12.7735 34.1743C11.9721 33.3729 11.5307 32.3076 11.5307 31.1744C11.5307 30.0408 11.9721 28.9756 12.7735 28.1742C13.5746 27.3728 14.6398 26.9314 15.7734 26.9314C16.9066 26.9314 17.9722 27.3728 18.7733 28.1745L25.3788 34.7797L41.2261 18.9325C42.0275 18.1311 43.0928 17.6901 44.226 17.6901C45.3592 17.6901 46.4245 18.1311 47.2259 18.9325C48.8807 20.5873 48.8807 23.2785 47.2265 24.9326Z" fill="#2DA502"/>
</svg>
