<svg width="40" height="40" viewBox="0 0 40 40" fill="none" xmlns="http://www.w3.org/2000/svg">
<rect x="0.1604" width="39.8395" height="40" rx="8" fill="#F5F5F6"/>
<path d="M18.5273 22.7717L30.5216 18.7178C32.3698 18.0931 33.0146 15.0475 31.9628 11.9104C30.911 8.77334 28.5631 6.73922 26.7149 7.36388L4.06784 15.0182C3.67384 15.1514 3.14315 14.7369 2.89753 14.0043C2.67331 13.3356 2.78733 12.6321 3.21892 12.4863L20.6358 6.59964C21.0673 6.45379 21.2237 5.73619 20.9754 4.99561C20.7271 4.25503 20.1751 3.77683 19.7388 3.92429L2.32194 9.81092C1.06483 10.2358 0.581954 12.3314 1.3214 14.5369C2.0395 16.6787 3.6654 18.1325 4.96474 17.6933L27.6165 10.0374C28.6015 9.70447 29.8334 10.7774 30.3913 12.4414C30.9519 14.1135 30.6097 15.7095 29.6293 16.0409L17.6303 20.0963C16.2137 20.5751 15.7601 22.8825 16.5449 25.2233C17.3511 27.6278 19.1183 29.1136 20.4974 28.6475L33.003 24.4208C33.7113 24.1814 34.5725 24.9275 34.9755 26.1297C35.3786 27.3319 35.1421 28.449 34.4338 28.6884L17.5282 34.4023C17.0967 34.5481 16.9403 35.2658 17.1886 36.0063C17.4369 36.7467 17.9889 37.2251 18.4252 37.0776L35.3355 31.3622C36.9069 30.831 37.4532 28.2708 36.5563 25.5955C35.6593 22.9202 33.6868 21.2113 32.1107 21.744L19.6004 25.9723C19.0891 26.1451 18.412 25.5585 18.121 24.6906C17.7926 23.8356 17.9785 22.9572 18.5273 22.7717Z" fill="#EAEAEA"/>
<path d="M27.2347 17.2498C26.3716 13.3915 23.0184 11.6665 20.0802 11.6665C20.0802 11.6665 20.0802 11.6665 20.0719 11.6665C17.1421 11.6665 13.7972 13.3915 12.9257 17.2415C11.9463 21.5415 14.5691 25.1832 16.9429 27.4832C17.8227 28.3332 18.9514 28.7582 20.0802 28.7582C21.209 28.7582 22.3378 28.3332 23.2093 27.4832C25.5831 25.1832 28.2058 21.5498 27.2347 17.2498ZM22.8026 17.9415L19.4826 21.2748C19.3581 21.3998 19.2004 21.4582 19.0427 21.4582C18.885 21.4582 18.7273 21.3998 18.6028 21.2748L17.3579 20.0248C17.1172 19.7832 17.1172 19.3832 17.3579 19.1415C17.5986 18.8998 17.997 18.8998 18.2377 19.1415L19.0427 19.9498L21.9228 17.0582C22.1635 16.8165 22.5619 16.8165 22.8026 17.0582C23.0433 17.2998 23.0433 17.6998 22.8026 17.9415Z" fill="#0E1827"/>
</svg>
