<svg width="149" height="117" viewBox="0 0 149 117" fill="none" xmlns="http://www.w3.org/2000/svg">
<path d="M58.5107 117C90.5492 117 116.521 90.8087 116.521 58.5C116.521 26.1913 90.5492 0 58.5107 0C26.4723 0 0.5 26.1913 0.5 58.5C0.5 90.8087 26.4723 117 58.5107 117Z" fill="#D3DAE0"/>
<g filter="url(#filter0_d_531_27845)">
<path d="M32.2141 26.5195H136.633C137.659 26.5195 138.643 26.9304 139.368 27.6618C140.093 28.3932 140.501 29.3852 140.501 30.4195V49.9195C140.501 50.9539 140.093 51.9459 139.368 52.6772C138.643 53.4086 137.659 53.8195 136.633 53.8195H32.2141C31.1884 53.8195 30.2047 53.4086 29.4794 52.6772C28.7541 51.9459 28.3467 50.9539 28.3467 49.9195V30.4195C28.3467 29.3852 28.7541 28.3932 29.4794 27.6618C30.2047 26.9304 31.1884 26.5195 32.2141 26.5195V26.5195Z" fill="white"/>
</g>
<path d="M81.715 32.7588H61.6046C60.3231 32.7588 59.2842 33.8064 59.2842 35.0988C59.2842 36.3911 60.3231 37.4388 61.6046 37.4388H81.715C82.9965 37.4388 84.0354 36.3911 84.0354 35.0988C84.0354 33.8064 82.9965 32.7588 81.715 32.7588Z" fill="#6295BD"/>
<path d="M95.6376 42.8994H61.6046C60.3231 42.8994 59.2842 43.9471 59.2842 45.2394C59.2842 46.5318 60.3231 47.5794 61.6046 47.5794H95.6376C96.9191 47.5794 97.958 46.5318 97.958 45.2394C97.958 43.9471 96.9191 42.8994 95.6376 42.8994Z" fill="#AEC3D5"/>
<path d="M53.0978 40.1713C53.0978 33.925 48.0765 28.8613 41.8824 28.8613C35.6883 28.8613 30.667 33.925 30.667 40.1713C30.667 46.4177 35.6883 51.4813 41.8824 51.4813C48.0765 51.4813 53.0978 46.4177 53.0978 40.1713Z" fill="#D0D1D1"/>
<path d="M41.185 43.8337C42.1451 43.8335 43.0777 43.5096 43.8341 42.9133L46.2126 45.3118L46.9776 44.5404L44.5983 42.1411C45.1961 41.3617 45.5145 40.4012 45.5016 39.416C45.4887 38.4308 45.1453 37.479 44.5273 36.7158C43.9094 35.9526 43.0533 35.423 42.0987 35.2132C41.144 35.0035 40.1471 35.126 39.2703 35.5607C38.3935 35.9955 37.6886 36.7169 37.2705 37.6074C36.8523 38.4979 36.7456 39.505 36.9677 40.4645C37.1897 41.424 37.7275 42.2793 38.4933 42.8912C39.2592 43.503 40.2079 43.8352 41.185 43.8337ZM41.185 36.1944C41.8275 36.1944 42.4556 36.3865 42.9898 36.7465C43.524 37.1064 43.9404 37.6181 44.1863 38.2167C44.4322 38.8153 44.4965 39.474 44.3712 40.1095C44.2458 40.745 43.9364 41.3287 43.4821 41.7868C43.0278 42.245 42.4489 42.557 41.8188 42.6834C41.1886 42.8098 40.5354 42.7449 39.9418 42.497C39.3482 42.249 38.8408 41.8291 38.4839 41.2904C38.1269 40.7517 37.9364 40.1183 37.9364 39.4704C37.9364 38.6015 38.2786 37.7682 38.8879 37.1539C39.4971 36.5395 40.3234 36.1944 41.185 36.1944Z" fill="white"/>
<g filter="url(#filter1_d_531_27845)">
<path d="M125.029 61.6191H20.6096C18.4737 61.6191 16.7422 63.3652 16.7422 65.5191V85.0191C16.7422 87.173 18.4737 88.9191 20.6096 88.9191H125.029C127.165 88.9191 128.896 87.173 128.896 85.0191V65.5191C128.896 63.3652 127.165 61.6191 125.029 61.6191Z" fill="white"/>
</g>
<path d="M70.1125 67.8594H50.0021C48.7205 67.8594 47.6816 68.907 47.6816 70.1994C47.6816 71.4917 48.7205 72.5394 50.0021 72.5394H70.1125C71.394 72.5394 72.4329 71.4917 72.4329 70.1994C72.4329 68.907 71.394 67.8594 70.1125 67.8594Z" fill="#6295BD"/>
<path d="M84.035 78H50.0021C48.7205 78 47.6816 79.0477 47.6816 80.34C47.6816 81.6323 48.7205 82.68 50.0021 82.68H84.035C85.3166 82.68 86.3555 81.6323 86.3555 80.34C86.3555 79.0477 85.3166 78 84.035 78Z" fill="#AEC3D5"/>
<path d="M41.4933 75.27C41.4933 69.0236 36.472 63.96 30.2779 63.96C24.0838 63.96 19.0625 69.0236 19.0625 75.27C19.0625 81.5163 24.0838 86.58 30.2779 86.58C36.472 86.58 41.4933 81.5163 41.4933 75.27Z" fill="#D0D1D1"/>
<path d="M29.5815 78.9313C30.5416 78.9312 31.4741 78.6072 32.2306 78.0109L34.6091 80.4094L35.374 79.638L32.9948 77.2387C33.5926 76.4594 33.911 75.4988 33.8981 74.5136C33.8852 73.5284 33.5418 72.5767 32.9238 71.8135C32.3059 71.0503 31.4498 70.5206 30.4952 70.3109C29.5405 70.1011 28.5436 70.2236 27.6668 70.6584C26.79 71.0932 26.0851 71.8146 25.667 72.7051C25.2488 73.5956 25.1421 74.6026 25.3641 75.5621C25.5862 76.5216 26.124 77.377 26.8898 77.9888C27.6557 78.6007 28.6044 78.9329 29.5815 78.9313ZM29.5815 71.292C30.224 71.292 30.8521 71.4842 31.3863 71.8441C31.9205 72.2041 32.3369 72.7157 32.5828 73.3143C32.8287 73.913 32.893 74.5717 32.7677 75.2071C32.6423 75.8426 32.3329 76.4263 31.8786 76.8845C31.4243 77.3427 30.8454 77.6547 30.2152 77.7811C29.5851 77.9075 28.9319 77.8426 28.3383 77.5946C27.7447 77.3467 27.2373 76.9268 26.8804 76.3881C26.5234 75.8493 26.3329 75.2159 26.3329 74.568C26.3329 73.6992 26.6751 72.8659 27.2844 72.2515C27.8936 71.6372 28.7199 71.292 29.5815 71.292Z" fill="white"/>
<defs>
<filter id="filter0_d_531_27845" x="26.3467" y="24.5195" width="122.154" height="37.2998" filterUnits="userSpaceOnUse" color-interpolation-filters="sRGB">
<feFlood flood-opacity="0" result="BackgroundImageFix"/>
<feColorMatrix in="SourceAlpha" type="matrix" values="0 0 0 0 0 0 0 0 0 0 0 0 0 0 0 0 0 0 127 0" result="hardAlpha"/>
<feOffset dx="3" dy="3"/>
<feGaussianBlur stdDeviation="2.5"/>
<feColorMatrix type="matrix" values="0 0 0 0 0.230539 0 0 0 0 0.370572 0 0 0 0 0.482993 0 0 0 0.1 0"/>
<feBlend mode="normal" in2="BackgroundImageFix" result="effect1_dropShadow_531_27845"/>
<feBlend mode="normal" in="SourceGraphic" in2="effect1_dropShadow_531_27845" result="shape"/>
</filter>
<filter id="filter1_d_531_27845" x="14.7422" y="59.6191" width="122.154" height="37.2998" filterUnits="userSpaceOnUse" color-interpolation-filters="sRGB">
<feFlood flood-opacity="0" result="BackgroundImageFix"/>
<feColorMatrix in="SourceAlpha" type="matrix" values="0 0 0 0 0 0 0 0 0 0 0 0 0 0 0 0 0 0 127 0" result="hardAlpha"/>
<feOffset dx="3" dy="3"/>
<feGaussianBlur stdDeviation="2.5"/>
<feColorMatrix type="matrix" values="0 0 0 0 0.230539 0 0 0 0 0.370572 0 0 0 0 0.482993 0 0 0 0.1 0"/>
<feBlend mode="normal" in2="BackgroundImageFix" result="effect1_dropShadow_531_27845"/>
<feBlend mode="normal" in="SourceGraphic" in2="effect1_dropShadow_531_27845" result="shape"/>
</filter>
</defs>
</svg>
