<svg width="24" height="24" viewBox="0 0 24 24" fill="none" xmlns="http://www.w3.org/2000/svg">
<path fill-rule="evenodd" clip-rule="evenodd" d="M9.77039 20.5035C9.77039 20.0893 10.1062 19.7535 10.5204 19.7535H13.4786C13.8928 19.7535 14.2286 20.0893 14.2286 20.5035C14.2286 20.9178 13.8928 21.2535 13.4786 21.2535H10.5204C10.1062 21.2535 9.77039 20.9178 9.77039 20.5035Z" fill="#473B4A"/>
<path fill-rule="evenodd" clip-rule="evenodd" d="M18.3023 10.991V12.4759L19.3408 13.5151L19.3417 13.516C19.8602 14.0324 20.1522 14.7337 20.1531 15.4655L19.4031 15.4665L20.1531 15.4688C20.1485 16.9295 18.963 18.1112 17.5023 18.1112H17.5021L6.50571 18.1082H6.50551C5.04487 18.1081 3.85953 16.9265 3.85492 15.4658L4.60492 15.4635L3.85492 15.462C3.85634 14.7302 4.14864 14.0291 4.66737 13.513L4.6685 13.5119L5.70669 12.4729V9.04178V9.04165C5.70732 5.5662 8.52379 2.74857 11.9992 2.74647L11.9995 2.74647L11.9996 2.74647C12.6709 2.74578 13.3312 2.85232 13.9577 3.0566C13.6592 3.46592 13.4213 3.92231 13.2573 4.41255C12.8511 4.30277 12.4289 4.246 12.0008 4.24647L12 3.49647L12.0004 4.24647C9.35287 4.2479 7.20724 6.39426 7.20669 9.04178L7.20669 9.04191L7.20669 12.7833C7.20669 12.9821 7.12775 13.1728 6.98723 13.3135L5.72771 14.574L5.72583 14.5759C5.48947 14.8107 5.35608 15.1298 5.35492 15.463C5.35795 16.0963 5.87219 16.6082 6.50571 16.6082H6.50591L17.5023 16.6112H17.5025C18.136 16.6111 18.6502 16.099 18.6531 15.4657C18.6522 15.1326 18.5191 14.8135 18.2829 14.5786L18.2813 14.577L17.0218 13.3165C16.8812 13.1758 16.8023 12.9851 16.8023 12.7863V10.8556C17.186 10.95 17.5872 11 18 11C18.1015 11 18.2023 10.997 18.3023 10.991Z" fill="#473B4A"/>
<path d="M21 6C21 7.65686 19.6569 9 18 9C16.3431 9 15 7.65686 15 6C15 4.34315 16.3431 3 18 3C19.6569 3 21 4.34315 21 6Z" fill="#BF4343"/>
</svg>
