<svg width="24" height="24" viewBox="0 0 24 24" fill="none" xmlns="http://www.w3.org/2000/svg">
<path fill-rule="evenodd" clip-rule="evenodd" d="M11.9996 2.74645C13.6703 2.74476 15.2732 3.40715 16.4554 4.58779C17.6376 5.76853 18.302 7.37076 18.3023 9.04163V12.4758L19.3408 13.5151C19.3411 13.5154 19.3414 13.5157 19.3417 13.516C19.8602 14.0323 20.1522 14.7337 20.1531 15.4655L19.4031 15.4664L20.1531 15.4688C20.1485 16.9295 18.963 18.1112 17.5023 18.1112L6.50571 18.1082C6.50564 18.1082 6.50578 18.1082 6.50571 18.1082C5.04508 18.1081 3.85953 16.9265 3.85492 15.4658L4.60492 15.4634L3.85492 15.462C3.85634 14.7302 4.14864 14.0291 4.66737 13.513C4.66774 13.5126 4.66812 13.5122 4.6685 13.5119L5.70669 12.4728V9.04177C5.70732 5.56632 8.5242 2.74856 11.9996 2.74645C11.9997 2.74645 11.9995 2.74645 11.9996 2.74645ZM12.0004 4.24645C9.35287 4.24789 7.20724 6.39425 7.20669 9.04177C7.20669 9.04172 7.20669 9.04181 7.20669 9.04177V12.7833C7.20669 12.9821 7.12775 13.1728 6.98723 13.3134L5.72771 14.574L5.72583 14.5758C5.48947 14.8107 5.35608 15.1298 5.35492 15.463C5.35795 16.0962 5.87219 16.6082 6.50571 16.6082L17.5023 16.6112C17.5022 16.6112 17.5024 16.6112 17.5023 16.6112C18.1358 16.6111 18.6502 16.099 18.6531 15.4657C18.6522 15.1326 18.5191 14.8135 18.2829 14.5786L18.2813 14.577L17.0218 13.3164C16.8812 13.1758 16.8023 12.9851 16.8023 12.7863V9.0419C16.8023 9.04186 16.8023 9.04195 16.8023 9.0419C16.802 7.76914 16.2959 6.54853 15.3954 5.64912C14.4948 4.74968 13.2732 4.24508 12.0004 4.24645Z" fill="#473B4A"/>
<path fill-rule="evenodd" clip-rule="evenodd" d="M9.77039 20.5035C9.77039 20.0893 10.1062 19.7535 10.5204 19.7535H13.4786C13.8928 19.7535 14.2286 20.0893 14.2286 20.5035C14.2286 20.9178 13.8928 21.2535 13.4786 21.2535H10.5204C10.1062 21.2535 9.77039 20.9178 9.77039 20.5035Z" fill="#473B4A"/>
</svg>
