<svg width="38" height="38" viewBox="0 0 38 38" fill="none" xmlns="http://www.w3.org/2000/svg">
<circle cx="19" cy="19" r="18.5" fill="white" stroke="#D0D1D1"/>
<path d="M16.1583 20.2584L21.85 23.5751M21.8417 14.4251L16.1583 17.7417M26.5 13.1667C26.5 14.5475 25.3807 15.6667 24 15.6667C22.6193 15.6667 21.5 14.5475 21.5 13.1667C21.5 11.786 22.6193 10.6667 24 10.6667C25.3807 10.6667 26.5 11.786 26.5 13.1667ZM16.5 19.0001C16.5 20.3808 15.3807 21.5001 14 21.5001C12.6193 21.5001 11.5 20.3808 11.5 19.0001C11.5 17.6194 12.6193 16.5001 14 16.5001C15.3807 16.5001 16.5 17.6194 16.5 19.0001ZM26.5 24.8334C26.5 26.2141 25.3807 27.3334 24 27.3334C22.6193 27.3334 21.5 26.2141 21.5 24.8334C21.5 23.4527 22.6193 22.3334 24 22.3334C25.3807 22.3334 26.5 23.4527 26.5 24.8334Z" stroke="black" stroke-width="1.5" stroke-linecap="round" stroke-linejoin="round"/>
</svg>
