<svg width="16" height="16" viewBox="0 0 16 16" fill="none" xmlns="http://www.w3.org/2000/svg">
<path d="M7.52309 1.3725C7.7976 0.812941 8.59525 0.81294 8.86976 1.3725L10.6517 5.00478C10.7606 5.22676 10.9719 5.3808 11.2166 5.41656L15.2085 6.0001C15.8223 6.08982 16.0681 6.84341 15.6252 7.27771L12.7309 10.1158C12.5554 10.2879 12.4753 10.5351 12.5167 10.7774L13.1991 14.7803C13.3037 15.3936 12.6591 15.8602 12.1092 15.5694L8.54707 13.6854C8.3277 13.5694 8.06515 13.5694 7.84579 13.6854L4.2837 15.5694C3.73374 15.8602 3.08917 15.3936 3.19373 14.7803L3.8762 10.7774C3.91751 10.5351 3.83747 10.2879 3.66198 10.1158L0.767686 7.27771C0.324794 6.84341 0.570541 6.08982 1.18431 6.0001L5.17627 5.41656C5.42092 5.3808 5.63222 5.22676 5.74112 5.00478L7.52309 1.3725Z" fill="#EBA83A"/>
</svg>
