<svg width="81" height="80" viewBox="0 0 81 80" fill="none" xmlns="http://www.w3.org/2000/svg">
<path d="M40.5 0C18.4441 0 0.5 17.9436 0.5 39.9998C0.5 62.056 18.4441 80 40.5 80C62.5559 80 80.5 62.056 80.5 39.9998C80.5 17.9436 62.5563 0 40.5 0ZM63.4687 33.2435L38.3387 58.3733C37.2702 59.4418 35.8498 60.0299 34.3389 60.0299C32.8279 60.0299 31.4075 59.4418 30.339 58.3733L17.5313 45.5657C16.4628 44.4972 15.8742 43.0768 15.8742 41.5658C15.8742 40.0545 16.4628 38.6341 17.5313 37.5656C18.5994 36.497 20.0198 35.9085 21.5312 35.9085C23.0421 35.9085 24.4629 36.497 25.531 37.566L34.3384 46.3729L55.4681 25.2434C56.5366 24.1748 57.957 23.5867 59.468 23.5867C60.979 23.5867 62.3993 24.1748 63.4679 25.2434C65.6742 27.4497 65.6742 31.038 63.4687 33.2435Z" fill="#2DA502"/>
</svg>
