<svg width="48" height="48" viewBox="0 0 48 48" fill="none" xmlns="http://www.w3.org/2000/svg">
<circle cx="24" cy="24" r="24" fill="#FFEDF1"/>
<path d="M32.9997 18.3178C32.9797 18.3178 32.9497 18.3178 32.9197 18.3178C27.6297 17.7918 22.3497 17.5933 17.1197 18.1193L15.0797 18.3178C14.6597 18.3575 14.2897 18.0597 14.2497 17.6429C14.2097 17.2261 14.5097 16.8688 14.9197 16.8291L16.9597 16.6306C22.2797 16.0947 27.6697 16.3031 33.0697 16.8291C33.4797 16.8688 33.7797 17.236 33.7397 17.6429C33.7097 18.03 33.3797 18.3178 32.9997 18.3178Z" fill="#D05051"/>
<path d="M20.5007 17.3142C20.4607 17.3142 20.4207 17.3142 20.3707 17.3042C19.9707 17.2348 19.6907 16.8477 19.7607 16.4507L19.9807 15.1506C20.1407 14.1979 20.3607 12.8779 22.6907 12.8779H25.3107C27.6507 12.8779 27.8707 14.2475 28.0207 15.1605L28.2407 16.4507C28.3107 16.8576 28.0307 17.2447 27.6307 17.3042C27.2207 17.3737 26.8307 17.0958 26.7707 16.6988L26.5507 15.4087C26.4107 14.5452 26.3807 14.3765 25.3207 14.3765H22.7007C21.6407 14.3765 21.6207 14.5155 21.4707 15.3987L21.2407 16.6889C21.1807 17.0561 20.8607 17.3142 20.5007 17.3142Z" fill="#D05051"/>
<path d="M27.2104 34.2153H20.7904C17.3004 34.2153 17.1604 32.2999 17.0504 30.7517L16.4004 20.7578C16.3704 20.3509 16.6904 19.9936 17.1004 19.9638C17.5204 19.944 17.8704 20.2516 17.9004 20.6585L18.5504 30.6524C18.6604 32.1609 18.7004 32.7266 20.7904 32.7266H27.2104C29.3104 32.7266 29.3504 32.1609 29.4504 30.6524L30.1004 20.6585C30.1304 20.2516 30.4904 19.944 30.9004 19.9638C31.3104 19.9936 31.6304 20.3409 31.6004 20.7578L30.9504 30.7517C30.8404 32.2999 30.7004 34.2153 27.2104 34.2153Z" fill="#D05051"/>
<path d="M25.6601 28.7572H22.3301C21.9201 28.7572 21.5801 28.4198 21.5801 28.0129C21.5801 27.606 21.9201 27.2686 22.3301 27.2686H25.6601C26.0701 27.2686 26.4101 27.606 26.4101 28.0129C26.4101 28.4198 26.0701 28.7572 25.6601 28.7572Z" fill="#D05051"/>
<path d="M26.5 24.7875H21.5C21.09 24.7875 20.75 24.4501 20.75 24.0432C20.75 23.6363 21.09 23.2988 21.5 23.2988H26.5C26.91 23.2988 27.25 23.6363 27.25 24.0432C27.25 24.4501 26.91 24.7875 26.5 24.7875Z" fill="#D05051"/>
</svg>
