<svg width="25" height="24" viewBox="0 0 25 24" fill="none" xmlns="http://www.w3.org/2000/svg">
<path d="M21.5 5.98047C18.17 5.65047 14.82 5.48047 11.48 5.48047C9.5 5.48047 7.52 5.58047 5.54 5.78047L3.5 5.98047" stroke="#D05051" stroke-width="1.5" stroke-linecap="round" stroke-linejoin="round"/>
<path d="M9 4.97L9.22 3.66C9.38 2.71 9.5 2 11.19 2H13.81C15.5 2 15.63 2.75 15.78 3.67L16 4.97" stroke="#D05051" stroke-width="1.5" stroke-linecap="round" stroke-linejoin="round"/>
<path d="M19.3499 9.14062L18.6999 19.2106C18.5899 20.7806 18.4999 22.0006 15.7099 22.0006H9.2899C6.4999 22.0006 6.4099 20.7806 6.2999 19.2106L5.6499 9.14062" stroke="#D05051" stroke-width="1.5" stroke-linecap="round" stroke-linejoin="round"/>
<path d="M10.83 16.5H14.16" stroke="#D05051" stroke-width="1.5" stroke-linecap="round" stroke-linejoin="round"/>
<path d="M10 12.5H15" stroke="#D05051" stroke-width="1.5" stroke-linecap="round" stroke-linejoin="round"/>
</svg>
