<svg width="16" height="17" viewBox="0 0 16 17" fill="none" xmlns="http://www.w3.org/2000/svg">
<path d="M7.99967 1.83447C4.32634 1.83447 1.33301 4.82781 1.33301 8.50114C1.33301 12.1745 4.32634 15.1678 7.99967 15.1678C11.673 15.1678 14.6663 12.1745 14.6663 8.50114C14.6663 4.82781 11.673 1.83447 7.99967 1.83447ZM7.49967 5.83447C7.49967 5.56114 7.72634 5.33447 7.99967 5.33447C8.27301 5.33447 8.49967 5.56114 8.49967 5.83447V9.1678C8.49967 9.44114 8.27301 9.6678 7.99967 9.6678C7.72634 9.6678 7.49967 9.44114 7.49967 9.1678V5.83447ZM8.61301 11.4211C8.57967 11.5078 8.53301 11.5745 8.47301 11.6411C8.40634 11.7011 8.33301 11.7478 8.25301 11.7811C8.17301 11.8145 8.08634 11.8345 7.99967 11.8345C7.91301 11.8345 7.82634 11.8145 7.74634 11.7811C7.66634 11.7478 7.59301 11.7011 7.52634 11.6411C7.46634 11.5745 7.41967 11.5078 7.38634 11.4211C7.35301 11.3411 7.33301 11.2545 7.33301 11.1678C7.33301 11.0811 7.35301 10.9945 7.38634 10.9145C7.41967 10.8345 7.46634 10.7611 7.52634 10.6945C7.59301 10.6345 7.66634 10.5878 7.74634 10.5545C7.90634 10.4878 8.09301 10.4878 8.25301 10.5545C8.33301 10.5878 8.40634 10.6345 8.47301 10.6945C8.53301 10.7611 8.57967 10.8345 8.61301 10.9145C8.64634 10.9945 8.66634 11.0811 8.66634 11.1678C8.66634 11.2545 8.64634 11.3411 8.61301 11.4211Z" fill="#EBA83A"/>
</svg>
