<svg width="269" height="190" viewBox="0 0 269 190" fill="none" xmlns="http://www.w3.org/2000/svg">
<path d="M248.275 162.3H0.476562V162.424H248.275V162.3Z" fill="#EBEBEB"/>
<path d="M223.446 170.276H216.061V170.4H223.446V170.276Z" fill="#EBEBEB"/>
<path d="M164.628 171.621H160.32V171.745H164.628V171.621Z" fill="#EBEBEB"/>
<path d="M213.968 165.675H197.023V165.799H213.968V165.675Z" fill="#EBEBEB"/>
<path d="M54.8083 168.231H33.4023V168.355H54.8083V168.231Z" fill="#EBEBEB"/>
<path d="M66.9407 168.231H59.2207V168.355H66.9407V168.231Z" fill="#EBEBEB"/>
<path d="M126.732 166.568H80.3066V166.692H126.732V166.568Z" fill="#EBEBEB"/>
<path d="M117.939 140.197H22.2392C21.4891 140.196 20.77 139.897 20.2396 139.367C19.7093 138.837 19.411 138.118 19.4102 137.368V2.84655C19.4112 2.09667 19.7096 1.37783 20.24 0.847675C20.7703 0.317523 21.4893 0.0193483 22.2392 0.0185547H117.939C118.689 0.0196129 119.408 0.317903 119.938 0.848026C120.468 1.37815 120.766 2.09685 120.767 2.84655V137.366C120.767 138.116 120.469 138.835 119.939 139.366C119.409 139.897 118.689 140.195 117.939 140.197ZM22.2402 0.142555C21.5247 0.144666 20.8392 0.429808 20.3333 0.935699C19.8274 1.44159 19.5423 2.12712 19.5402 2.84256V137.366C19.5423 138.081 19.8274 138.767 20.3333 139.272C20.8392 139.778 21.5247 140.063 22.2402 140.066H117.94C118.656 140.063 119.341 139.778 119.847 139.272C120.353 138.767 120.638 138.081 120.64 137.366V2.84655C120.638 2.13112 120.353 1.44559 119.847 0.939697C119.341 0.433806 118.656 0.148667 117.94 0.146557L22.2402 0.142555Z" fill="#EBEBEB"/>
<path d="M225.135 140.197H129.435C128.686 140.195 127.967 139.897 127.437 139.367C126.906 138.836 126.608 138.117 126.607 137.368V2.84655C126.608 2.09677 126.906 1.37792 127.437 0.847736C127.967 0.317556 128.686 0.0193488 129.435 0.0185547H225.135C225.885 0.0193483 226.604 0.317523 227.135 0.847675C227.665 1.37783 227.963 2.09667 227.964 2.84655V137.366C227.964 138.116 227.666 138.836 227.136 139.366C226.605 139.897 225.886 140.196 225.135 140.197ZM129.435 0.142555C128.72 0.144666 128.034 0.429808 127.529 0.935699C127.023 1.44159 126.738 2.12712 126.735 2.84256V137.366C126.738 138.081 127.023 138.767 127.529 139.272C128.034 139.778 128.72 140.063 129.435 140.066H225.135C225.852 140.065 226.539 139.78 227.046 139.274C227.552 138.768 227.838 138.082 227.84 137.366V2.84655C227.838 2.13025 227.552 1.44397 227.046 0.937939C226.539 0.431905 225.852 0.147347 225.135 0.146557L129.435 0.142555Z" fill="#EBEBEB"/>
<path d="M106.769 162.299H115.998L115.998 98.9268H106.769V162.299Z" fill="#E6E6E6"/>
<path d="M110.019 162.299H106.77V150.259H113.425L110.019 162.299Z" fill="#F0F0F0"/>
<path d="M204.363 162.299H213.592V98.9268H204.363V162.299Z" fill="#E6E6E6"/>
<path d="M106.77 159.012H207.199V98.9267L106.77 98.9267L106.77 159.012Z" fill="#F0F0F0"/>
<path d="M203.953 162.299H207.202V150.259H200.543L203.953 162.299Z" fill="#F0F0F0"/>
<path d="M174.088 103.901V153.605H203.859V103.901H174.088Z" fill="#E6E6E6"/>
<path d="M186.029 105.649H191.919C194.411 105.675 196.824 104.768 198.683 103.107H179.266C181.124 104.768 183.536 105.675 186.029 105.649Z" fill="#F0F0F0"/>
<path d="M142.098 103.901V153.605H171.869V103.901H142.098Z" fill="#E6E6E6"/>
<path d="M153.739 105.649H159.629C162.121 105.675 164.533 104.768 166.392 103.107H146.975C148.834 104.768 151.246 105.675 153.739 105.649Z" fill="#F0F0F0"/>
<path d="M110.109 103.901V153.605H139.88V103.901H110.109Z" fill="#E6E6E6"/>
<path d="M121.75 105.649H127.64C130.133 105.675 132.545 104.768 134.404 103.107H114.986C116.845 104.768 119.258 105.675 121.75 105.649Z" fill="#F0F0F0"/>
<path d="M137.957 83.3896L204.736 83.3896V20.7456L137.957 20.7456V83.3896Z" fill="#E6E6E6"/>
<path d="M136.274 83.3896L203.053 83.3896V20.7456L136.274 20.7456V83.3896Z" fill="#F5F5F5"/>
<path d="M132.375 87.0156L204.736 87.0156V83.3896L132.375 83.3896V87.0156Z" fill="#E6E6E6"/>
<path d="M130.481 87.0156L199.115 87.0156V83.3896L130.481 83.3896V87.0156Z" fill="#F5F5F5"/>
<path d="M200.031 80.1319V24.0049L139.295 24.0049V80.1319H200.031Z" fill="white"/>
<path d="M171.346 80.1319V24.0049H167.979V80.1319H171.346Z" fill="#F5F5F5"/>
<path d="M140.568 80.1319V24.0049H139.295V80.1319H140.568Z" fill="#E6E6E6"/>
<path d="M172.619 80.1319V24.0049H171.346V80.1319H172.619Z" fill="#E6E6E6"/>
<path d="M146.936 85.0517C145.708 72.3267 144.853 51.6777 145.517 44.7717C145.528 44.653 145.565 44.5382 145.624 44.4347C145.683 44.3313 145.764 44.2416 145.861 44.1717C145.989 44.0777 146.141 44.0217 146.3 44.0101C146.459 43.9984 146.617 44.0316 146.758 44.1059C146.899 44.1801 147.016 44.2924 147.096 44.4299C147.176 44.5674 147.216 44.7247 147.211 44.8837C147.094 48.3057 146.959 56.8587 147.688 71.6137C148.051 78.9587 148.574 83.9887 148.215 85.0497L146.936 85.0517Z" fill="#E6E6E6"/>
<path d="M142.357 55.7228C138.857 51.8398 131.718 49.0788 124.44 49.0928C121.583 49.0988 133.133 53.6098 137.94 58.5928C141.782 62.7308 144.944 67.4509 147.309 72.5778C146.381 64.9728 145.854 59.6038 142.357 55.7228Z" fill="#E6E6E6"/>
<path d="M149.29 56.9052C152.19 52.8612 158.897 49.7512 166.15 49.3992C168.997 49.2612 158.164 54.3362 154.121 59.5382C150.896 63.8861 148.444 68.7574 146.874 73.9382C146.662 66.3252 146.386 60.9502 149.29 56.9052Z" fill="#E6E6E6"/>
<path d="M142.202 41.5408C139.241 38.2528 133.193 35.9148 127.03 35.9268C124.611 35.9268 134.391 39.7528 138.458 43.9678C141.711 47.4716 144.389 51.4685 146.392 55.8098C145.61 49.3758 145.161 44.8288 142.202 41.5408Z" fill="#E6E6E6"/>
<path d="M148.07 46.4042C150.529 42.9792 156.206 40.3462 162.347 40.0482C164.758 39.9312 155.585 44.2282 152.161 48.6332C149.429 52.3168 147.353 56.4439 146.024 60.8332C145.846 54.3812 145.611 49.8272 148.07 46.4042Z" fill="#E6E6E6"/>
<path d="M147.429 98.9268C145.584 98.9268 143.808 98.221 142.466 96.9541C141.125 95.6872 140.318 93.9552 140.212 92.1128L139.574 81.0498H155.284L154.646 92.1128C154.54 93.9552 153.734 95.6872 152.392 96.9541C151.05 98.221 149.275 98.9268 147.429 98.9268Z" fill="#E6E6E6"/>
<path d="M156.302 83.5648H138.561L138.053 78.9648H156.814L156.302 83.5648Z" fill="#E6E6E6"/>
<path d="M144.021 190C212.781 190 268.521 187.538 268.521 184.5C268.521 181.462 212.781 179 144.021 179C75.262 179 19.5215 181.462 19.5215 184.5C19.5215 187.538 75.262 190 144.021 190Z" fill="#F5F5F5"/>
<path d="M185.506 179.062L181.368 179.528L179.842 170.144L183.98 169.678L185.506 179.062Z" fill="#FFC3BD"/>
<path d="M204.032 179.966H199.9L198.871 170.397H203.003L204.032 179.966Z" fill="#FFC3BD"/>
<path d="M199.56 179.485H204.597C204.679 179.485 204.759 179.513 204.823 179.565C204.886 179.616 204.931 179.687 204.949 179.767L205.765 183.44C205.784 183.53 205.783 183.623 205.761 183.711C205.74 183.8 205.698 183.883 205.64 183.954C205.582 184.025 205.508 184.081 205.425 184.12C205.342 184.158 205.252 184.177 205.16 184.175C203.539 184.147 202.36 184.052 200.316 184.052C199.06 184.052 195.272 184.182 193.538 184.182C191.838 184.182 191.577 182.467 192.287 182.312C195.471 181.612 197.87 180.655 198.887 179.739C199.072 179.574 199.312 179.484 199.56 179.485Z" fill="#263238"/>
<path d="M181.3 178.819L185.784 178.311C185.866 178.302 185.948 178.32 186.017 178.364C186.087 178.407 186.139 178.473 186.166 178.551L187.391 182.108C187.422 182.194 187.433 182.286 187.423 182.377C187.413 182.468 187.382 182.555 187.333 182.632C187.284 182.71 187.218 182.775 187.14 182.822C187.062 182.87 186.974 182.899 186.883 182.908C185.263 183.064 182.915 183.234 180.883 183.465C178.506 183.735 178.11 184.371 175.306 184.306C173.606 184.266 173.18 182.541 173.893 182.406C177.141 181.775 177.769 181.284 180.35 179.258C180.62 179.026 180.949 178.874 181.3 178.819Z" fill="#263238"/>
<path d="M184.949 58.5506C183.561 59.6966 182.195 60.6926 180.782 61.7126C179.369 62.7326 177.926 63.6796 176.441 64.5986C174.956 65.5176 173.432 66.3986 171.834 67.1986C170.2 68.0449 168.5 68.7547 166.749 69.3206C166.286 69.4686 165.835 69.5906 165.315 69.7206C164.807 69.8308 164.293 69.9133 163.775 69.9676C162.844 70.0676 161.968 70.1126 161.095 70.1526C159.355 70.2326 157.648 70.2306 155.943 70.2186C152.533 70.1776 149.152 70.0136 145.756 69.7136L145.705 66.6136C149.04 66.1846 152.39 65.8136 155.705 65.4406C157.362 65.2606 159.015 65.0586 160.63 64.8476C161.43 64.7386 162.23 64.6106 162.968 64.4736C163.285 64.4176 163.599 64.3438 163.908 64.2526C164.199 64.1526 164.556 64.0386 164.886 63.9056C166.303 63.3302 167.679 62.6572 169.003 61.8916C170.374 61.1046 171.746 60.2596 173.094 59.3616C174.442 58.4636 175.784 57.5336 177.114 56.5846C178.444 55.6356 179.773 54.6306 181.021 53.6846L184.949 58.5506Z" fill="#FFC3BD"/>
<path d="M188.989 55.0184C188.395 58.9244 180.171 64.8994 180.171 64.8994L174.271 57.5764C176.856 54.8181 179.597 52.2102 182.479 49.7654C185.134 47.5954 189.635 50.7684 188.989 55.0184Z" fill="#98A2B3"/>
<path d="M146.843 66.9405L144.497 65.2705L144.24 70.5465C144.595 70.5474 144.944 70.4615 145.258 70.2963C145.572 70.131 145.84 69.8915 146.04 69.5985L146.843 66.9405Z" fill="#FFC3BD"/>
<path d="M142.378 63.7344L141.898 68.9054L144.242 70.5464L144.499 65.2704L142.378 63.7344Z" fill="#FFC3BD"/>
<path opacity="0.2" d="M179.844 170.147L180.63 174.984L184.769 174.518L183.983 169.681L179.844 170.147Z" fill="black"/>
<path opacity="0.2" d="M203.005 170.397H198.871L199.403 175.329H203.537L203.005 170.397Z" fill="black"/>
<path d="M203.064 49.8902C203.372 49.9592 203.663 50.0891 203.92 50.2722C204.176 50.4553 204.394 50.6879 204.56 50.9563C204.725 51.2248 204.835 51.5236 204.884 51.8353C204.932 52.147 204.918 52.4652 204.841 52.7712C203.945 56.4927 203.269 60.2639 202.817 64.0652C202.426 67.2652 202.192 70.3222 202.046 73.0932C201.703 79.5882 201.846 84.5392 201.652 86.2172C198.421 85.9932 186.245 85.1462 179.606 84.6822C177.365 67.1382 179.991 55.9422 181.466 51.3932C181.692 50.6844 182.115 50.0543 182.685 49.5763C183.255 49.0983 183.949 48.792 184.686 48.6932C185.532 48.5822 186.544 48.4752 187.612 48.4122C187.986 48.3882 188.365 48.3752 188.751 48.3672C191.885 48.4043 195.015 48.622 198.124 49.0192C198.714 49.0892 199.31 49.1762 199.89 49.2692C201.049 49.4632 202.151 49.6862 203.064 49.8902Z" fill="#D0D5DD"/>
<path d="M197.932 38.4062C197.132 41.3802 196.154 46.8642 198.124 49.0242C193.014 52.4612 189.752 57.3003 188.811 56.2493C188.318 55.6993 188.104 49.3343 188.752 48.3703C192.171 47.8023 192.258 45.3012 191.836 42.9172L197.932 38.4062Z" fill="#FFC3BD"/>
<path d="M197.728 47.791C197.728 47.791 189.401 51.476 188.297 59.716C190.591 57.06 195.658 54.17 195.658 54.17L193.423 53.528C194.844 52.9886 196.316 52.5926 197.816 52.346C197.568 51.208 198.89 48.938 198.89 48.938L197.728 47.791Z" fill="#98A2B3"/>
<path d="M190.217 47.6582C190.217 47.6582 191.327 52.3642 188.3 59.7162C187.703 57.1501 186.884 54.6407 185.854 52.2162L187.893 52.7712C187.893 52.7712 187.793 51.8222 186.142 50.5602C186.83 49.5609 187.688 48.69 188.677 47.9872L190.217 47.6582Z" fill="#98A2B3"/>
<path opacity="0.2" d="M195.448 40.2471L191.84 42.9151C191.947 43.4703 192.005 44.0338 192.013 44.5991C193.313 44.4991 195.173 43.2161 195.404 41.8811C195.517 41.3435 195.532 40.7899 195.448 40.2471Z" fill="black"/>
<path d="M187.351 29.7941C185.336 29.8811 184.224 33.3551 186.269 36.2161C188.314 39.0771 190.066 29.6771 187.351 29.7941Z" fill="#263238"/>
<path d="M197.289 32.8509C197.528 36.9449 197.876 39.3279 196.074 41.6609C193.364 45.1699 188.124 43.9119 186.667 39.9719C185.356 36.4259 185.185 30.3269 188.967 28.2319C189.799 27.7655 190.737 27.5196 191.69 27.5176C192.644 27.5156 193.583 27.7575 194.416 28.2203C195.25 28.6832 195.952 29.3516 196.455 30.1621C196.958 30.9726 197.245 31.8982 197.289 32.8509Z" fill="#FFC3BD"/>
<path d="M197.891 35.9971C196.796 35.3554 195.84 34.5022 195.078 33.4874C194.316 32.4726 193.764 31.3164 193.454 30.0861C192.254 30.3701 186.273 33.1221 184.434 30.0861C182.595 27.0501 184.909 25.2691 188.35 27.1381C186.828 24.4521 188.212 23.1381 192.994 23.0221C197.776 22.9061 197.133 25.6781 197.133 25.6781C197.133 25.6781 200.753 24.1021 202.033 26.8781C203.516 30.0681 200.78 35.5151 197.891 35.9971Z" fill="#263238"/>
<path d="M196.314 24.9453C196.358 24.9453 198.125 25.3703 200.161 23.3213C199.796 25.0693 196.634 26.2333 196.634 26.2333L196.314 24.9453Z" fill="#263238"/>
<path d="M198.69 30.934C196.783 30.275 194.474 33.1 195.327 36.511C196.18 39.922 201.259 31.822 198.69 30.934Z" fill="#263238"/>
<path d="M199.769 36.2564C199.594 37.2731 199.024 38.1792 198.183 38.7764C197.062 39.5584 196.052 38.6644 195.983 37.3704C195.925 36.2064 196.437 34.3964 197.744 34.1294C198.031 34.0758 198.326 34.0947 198.604 34.1845C198.882 34.2742 199.133 34.4319 199.334 34.6432C199.535 34.8546 199.68 35.1129 199.756 35.3946C199.832 35.6763 199.837 35.9726 199.769 36.2564Z" fill="#FFC3BD"/>
<path d="M185.819 131.236C186.812 119.15 194.096 85.6926 194.096 85.6926L179.602 84.6816C179.602 84.6816 174.013 117.893 173.585 130.497C173.139 143.602 178.41 172.728 178.41 172.728L185.361 171.937C185.361 171.937 184.822 143.372 185.819 131.236Z" fill="#98A2B3"/>
<path opacity="0.5" d="M185.819 131.236C186.812 119.15 194.096 85.6926 194.096 85.6926L179.602 84.6816C179.602 84.6816 174.013 117.893 173.585 130.497C173.139 143.602 178.41 172.728 178.41 172.728L185.361 171.937C185.361 171.937 184.822 143.372 185.819 131.236Z" fill="white"/>
<path opacity="0.2" d="M188.637 97.0234C185.715 100.759 185.663 113.88 186.793 123.574C187.87 116.581 189.567 107.7 191.054 100.297L188.637 97.0234Z" fill="black"/>
<path d="M187.424 85.2275C187.424 85.2275 188.988 120.603 190.733 132.583C192.643 145.702 197.494 174.375 197.494 174.375H205.062C205.062 174.375 203.817 147.369 202.818 134.48C201.681 119.799 201.65 86.2195 201.65 86.2195L187.424 85.2275Z" fill="#98A2B3"/>
<path opacity="0.5" d="M187.424 85.2275C187.424 85.2275 188.988 120.603 190.733 132.583C192.643 145.702 197.494 174.375 197.494 174.375H205.062C205.062 174.375 203.817 147.369 202.818 134.48C201.681 119.799 201.65 86.2195 201.65 86.2195L187.424 85.2275Z" fill="white"/>
<path d="M196.583 174.535H205.494V171.873L195.533 171.7L196.583 174.535Z" fill="#98A2B3"/>
<path d="M178.107 173.512L186.391 172.572L186.091 169.896L176.814 170.805L178.107 173.512Z" fill="#98A2B3"/>
<path d="M191.26 34.7277C191.3 35.0587 191.16 35.3477 190.94 35.3737C190.72 35.3997 190.516 35.1527 190.477 34.8217C190.438 34.4907 190.577 34.2017 190.797 34.1757C191.017 34.1497 191.221 34.3967 191.26 34.7277Z" fill="#263238"/>
<path d="M187.521 35.1769C187.561 35.5079 187.421 35.7969 187.201 35.8229C186.981 35.8489 186.777 35.6019 186.737 35.2709C186.697 34.9399 186.837 34.6509 187.057 34.6249C187.277 34.5989 187.481 34.8499 187.521 35.1769Z" fill="#263238"/>
<path d="M188.73 35.1992C188.457 36.2579 188.04 37.2741 187.49 38.2192C187.736 38.3536 188.007 38.4329 188.286 38.4513C188.566 38.4698 188.845 38.4271 189.106 38.3262L188.73 35.1992Z" fill="#ED847E"/>
<path d="M192.277 33.3788C192.243 33.3893 192.206 33.3901 192.17 33.3811C192.135 33.3722 192.103 33.3537 192.077 33.3278C191.912 33.146 191.706 33.0059 191.476 32.919C191.246 32.8321 190.999 32.8008 190.754 32.8278C190.704 32.8364 190.651 32.825 190.609 32.7959C190.566 32.7669 190.536 32.7224 190.525 32.6719C190.52 32.6465 190.52 32.6204 190.525 32.5951C190.53 32.5698 190.54 32.5457 190.555 32.5243C190.57 32.503 190.588 32.4848 190.61 32.4708C190.632 32.4568 190.656 32.4473 190.681 32.4428C190.99 32.4029 191.303 32.4376 191.596 32.5441C191.888 32.6506 192.15 32.8258 192.36 33.0548C192.396 33.0921 192.416 33.1417 192.416 33.1934C192.416 33.245 192.396 33.2946 192.36 33.3318C192.337 33.3542 192.309 33.3704 192.277 33.3788Z" fill="#263238"/>
<path d="M190.842 39.646C191.314 39.5467 191.755 39.3353 192.128 39.0297C192.501 38.724 192.795 38.3331 192.985 37.89C192.994 37.8634 192.992 37.8343 192.98 37.809C192.968 37.7837 192.946 37.7643 192.92 37.755C192.893 37.7457 192.864 37.7473 192.839 37.7595C192.813 37.7717 192.794 37.7934 192.785 37.82C192.603 38.2276 192.327 38.5868 191.981 38.8685C191.635 39.1503 191.227 39.3467 190.791 39.442C190.777 39.4451 190.764 39.4508 190.753 39.4588C190.742 39.4668 190.732 39.4769 190.725 39.4886C190.718 39.5003 190.713 39.5133 190.71 39.527C190.708 39.5406 190.709 39.5545 190.712 39.568C190.715 39.5814 190.72 39.5942 190.728 39.6054C190.736 39.6167 190.747 39.6262 190.758 39.6336C190.77 39.6409 190.783 39.6459 190.797 39.6482C190.81 39.6505 190.824 39.6501 190.838 39.647L190.842 39.646Z" fill="#263238"/>
<path d="M185.763 34.0833C185.724 34.0964 185.682 34.0964 185.642 34.0833C185.594 34.0654 185.554 34.0295 185.532 33.9831C185.509 33.9367 185.506 33.8834 185.521 33.8343C185.615 33.5377 185.779 33.2681 185.999 33.0484C186.22 32.8287 186.49 32.6654 186.786 32.5723C186.837 32.561 186.889 32.5694 186.933 32.5958C186.977 32.6223 187.01 32.6647 187.023 32.7143C187.035 32.7644 187.026 32.8169 187 32.861C186.974 32.9051 186.932 32.9375 186.882 32.9513C186.649 33.0292 186.437 33.1613 186.265 33.3369C186.093 33.5125 185.965 33.7265 185.891 33.9613C185.881 33.9901 185.864 34.0161 185.842 34.0372C185.819 34.0584 185.793 34.0742 185.763 34.0833Z" fill="#263238"/>
<path d="M198.2 180.207C197.917 180.229 197.635 180.155 197.4 179.996C197.326 179.932 197.27 179.852 197.235 179.762C197.2 179.672 197.188 179.575 197.2 179.479C197.199 179.421 197.215 179.365 197.245 179.317C197.274 179.268 197.317 179.228 197.368 179.202C197.827 178.966 199.158 179.786 199.308 179.88C199.324 179.89 199.337 179.905 199.345 179.923C199.353 179.941 199.356 179.96 199.353 179.98C199.349 179.999 199.341 180.016 199.327 180.031C199.314 180.045 199.297 180.055 199.279 180.06C198.926 180.149 198.564 180.198 198.2 180.207ZM197.586 179.352C197.542 179.35 197.498 179.358 197.459 179.376C197.438 179.387 197.422 179.404 197.411 179.424C197.4 179.444 197.395 179.468 197.397 179.491C197.388 179.556 197.395 179.623 197.418 179.685C197.442 179.747 197.48 179.802 197.53 179.846C197.991 180.056 198.516 180.083 198.997 179.92C198.566 179.64 198.085 179.447 197.581 179.352H197.586Z" fill="#98A2B3"/>
<path d="M199.252 180.062C199.235 180.062 199.219 180.058 199.205 180.05C198.778 179.818 197.951 178.912 198.038 178.45C198.052 178.378 198.091 178.313 198.147 178.266C198.204 178.22 198.275 178.194 198.349 178.193C198.423 178.184 198.499 178.191 198.57 178.213C198.642 178.234 198.709 178.271 198.766 178.319C199.246 178.712 199.345 179.904 199.348 179.954C199.349 179.972 199.345 179.989 199.338 180.005C199.33 180.021 199.318 180.035 199.304 180.044C199.288 180.055 199.27 180.061 199.252 180.062ZM198.418 178.387H198.373C198.246 178.403 198.235 178.461 198.23 178.487C198.178 178.759 198.705 179.443 199.13 179.766C199.102 179.294 198.931 178.841 198.642 178.466C198.579 178.414 198.499 178.386 198.418 178.387Z" fill="#98A2B3"/>
<path d="M180.963 179.43L180.947 179.437C180.3 179.644 179.142 179.937 178.647 179.591C178.574 179.54 178.514 179.473 178.473 179.394C178.432 179.315 178.411 179.227 178.411 179.139C178.407 179.085 178.417 179.031 178.44 178.983C178.463 178.934 178.498 178.893 178.542 178.862C179.007 178.535 180.754 179.178 180.952 179.253C180.969 179.26 180.984 179.272 180.994 179.287C181.005 179.302 181.011 179.32 181.012 179.338C181.013 179.357 181.009 179.375 181.001 179.391C180.992 179.408 180.979 179.421 180.963 179.431V179.43ZM178.68 179.006L178.657 179.02C178.639 179.032 178.625 179.048 178.616 179.068C178.607 179.088 178.604 179.109 178.607 179.131C178.606 179.189 178.619 179.247 178.645 179.3C178.672 179.352 178.711 179.397 178.759 179.431C179.367 179.62 180.023 179.585 180.607 179.331C180.002 179.062 179.339 178.95 178.679 179.006H178.68Z" fill="#98A2B3"/>
<path d="M180.963 179.43C180.939 179.442 180.912 179.444 180.887 179.436C180.367 179.27 179.287 178.493 179.307 178.021C179.312 177.91 179.375 177.765 179.639 177.708C179.734 177.686 179.833 177.685 179.929 177.703C180.025 177.721 180.116 177.759 180.197 177.814C180.621 178.219 180.906 178.747 181.013 179.324C181.016 179.34 181.015 179.358 181.01 179.374C181.005 179.39 180.995 179.405 180.983 179.417C180.977 179.422 180.97 179.426 180.963 179.43ZM179.572 177.94C179.505 177.976 179.503 178.018 179.502 178.034C179.488 178.318 180.234 178.94 180.775 179.186C180.675 178.725 180.436 178.306 180.09 177.986C180.031 177.945 179.964 177.917 179.893 177.903C179.823 177.889 179.75 177.891 179.68 177.907C179.643 177.913 179.606 177.924 179.572 177.94Z" fill="#98A2B3"/>
<path d="M206.55 55.8507C206.445 57.4647 206.255 58.9677 206.058 60.5197C205.861 62.0717 205.596 63.5927 205.305 65.1277C204.729 68.2629 203.879 71.3414 202.764 74.3277L202.273 75.4847L202.149 75.7737L202.118 75.8457L202.067 75.9557L201.923 76.2407C201.733 76.587 201.504 76.911 201.242 77.2067C200.811 77.6918 200.307 78.1068 199.748 78.4367C199.295 78.7061 198.821 78.9366 198.329 79.1257C196.691 79.7165 194.979 80.074 193.241 80.1877C190.086 80.4233 186.915 80.3049 183.787 79.8347L183.9 76.7347L186.086 76.4877C186.819 76.4007 187.548 76.2877 188.273 76.1877C189.72 75.9747 191.152 75.7367 192.517 75.4197C193.78 75.1626 195.007 74.7557 196.173 74.2077C196.488 74.0755 196.763 73.8652 196.973 73.5967C196.986 73.5257 196.828 73.8367 197.014 73.3397L197.341 72.3837C198.142 69.643 198.755 66.8508 199.175 64.0267C199.41 62.5887 199.611 61.1377 199.805 59.6827C199.999 58.2277 200.159 56.7427 200.312 55.3477L206.55 55.8507Z" fill="#FFC3BD"/>
<path d="M206.911 52.8544C208.934 56.2474 207.211 66.9113 207.211 66.9113L196.611 64.9523C196.611 64.9523 196.037 58.8523 198.055 54.1583C200.246 49.0493 204.46 48.7434 206.911 52.8544Z" fill="#98A2B3"/>
<path d="M180.932 86.3253L175.307 60.1613C175.037 59.0441 174.411 58.0448 173.524 57.3143C172.636 56.5838 171.535 56.1616 170.387 56.1113H148.834C149.982 56.1614 151.084 56.5835 151.971 57.314C152.859 58.0446 153.485 59.0439 153.755 60.1613L159.38 86.3253C159.65 87.4426 160.276 88.4418 161.163 89.1723C162.051 89.9029 163.152 90.3251 164.3 90.3753H185.852C184.704 90.3251 183.603 89.9029 182.715 89.1723C181.828 88.4418 181.202 87.4426 180.932 86.3253Z" fill="#263238"/>
<path opacity="0.7" d="M180.932 86.3253L175.307 60.1613C175.037 59.0441 174.411 58.0448 173.524 57.3143C172.636 56.5838 171.535 56.1616 170.387 56.1113H148.834C149.982 56.1614 151.084 56.5835 151.971 57.314C152.859 58.0446 153.485 59.0439 153.755 60.1613L159.38 86.3253C159.65 87.4426 160.276 88.4418 161.163 89.1723C162.051 89.9029 163.152 90.3251 164.3 90.3753H185.852C184.704 90.3251 183.603 89.9029 182.715 89.1723C181.828 88.4418 181.202 87.4426 180.932 86.3253Z" fill="#98A2B3"/>
<path d="M148.833 56.1113H170.385C169.282 56.132 168.224 56.555 167.41 57.3008C166.597 58.0466 166.084 59.0638 165.967 60.1613L160.376 120.961C160.26 122.059 159.747 123.076 158.933 123.822C158.119 124.567 157.062 124.99 155.958 125.011H142.506C141.988 125.021 141.474 124.92 140.998 124.714C140.522 124.509 140.096 124.205 139.747 123.821C139.398 123.438 139.136 122.984 138.977 122.491C138.817 121.998 138.765 121.476 138.824 120.961L144.416 60.1613C144.533 59.064 145.046 58.0469 145.859 57.3011C146.672 56.5553 147.73 56.1322 148.833 56.1113Z" fill="#98A2B3"/>
<path d="M152.277 120.96C152.218 121.475 152.27 121.996 152.429 122.49C152.588 122.983 152.851 123.436 153.199 123.82C153.548 124.203 153.975 124.508 154.45 124.713C154.926 124.918 155.441 125.02 155.959 125.01H134.407C133.889 125.02 133.374 124.919 132.898 124.713C132.422 124.508 131.996 124.204 131.647 123.82C131.298 123.437 131.036 122.983 130.877 122.49C130.718 121.996 130.666 121.475 130.725 120.96H152.277Z" fill="#263238"/>
<path opacity="0.7" d="M152.277 120.96C152.218 121.475 152.27 121.996 152.429 122.49C152.588 122.983 152.851 123.436 153.199 123.82C153.548 124.203 153.975 124.508 154.45 124.713C154.926 124.918 155.441 125.02 155.959 125.01H134.407C133.889 125.02 133.374 124.919 132.898 124.713C132.422 124.508 131.996 124.204 131.647 123.82C131.298 123.437 131.036 122.983 130.877 122.49C130.718 121.996 130.666 121.475 130.725 120.96H152.277Z" fill="#98A2B3"/>
<g opacity="0.5">
<path opacity="0.5" d="M162.233 62.9233H147.649C147.536 62.9248 147.424 62.9024 147.321 62.8575C147.218 62.8126 147.125 62.7462 147.05 62.6628C146.974 62.5793 146.917 62.4808 146.882 62.3736C146.848 62.2665 146.836 62.1532 146.849 62.0413C146.875 61.8025 146.986 61.5813 147.164 61.4191C147.341 61.2568 147.571 61.1644 147.811 61.1593H162.393C162.505 61.1577 162.617 61.1801 162.72 61.2251C162.823 61.27 162.916 61.3363 162.992 61.4197C163.067 61.5032 163.124 61.6017 163.159 61.7089C163.194 61.816 163.205 61.9293 163.193 62.0413C163.167 62.2797 163.055 62.5006 162.879 62.6628C162.702 62.8251 162.472 62.9176 162.233 62.9233Z" fill="white"/>
<path opacity="0.5" d="M161.799 67.6947H147.215C147.102 67.6963 146.991 67.6738 146.888 67.6289C146.784 67.584 146.692 67.5177 146.616 67.4342C146.54 67.3508 146.483 67.2523 146.449 67.1451C146.414 67.038 146.403 66.9247 146.415 66.8127C146.441 66.574 146.553 66.3528 146.73 66.1905C146.907 66.0282 147.137 65.9359 147.377 65.9307H161.961C162.074 65.9292 162.185 65.9516 162.289 65.9965C162.392 66.0414 162.484 66.1078 162.56 66.1912C162.636 66.2746 162.693 66.3732 162.727 66.4803C162.762 66.5875 162.774 66.7008 162.761 66.8127C162.735 67.0516 162.623 67.2729 162.446 67.4352C162.269 67.5975 162.039 67.6898 161.799 67.6947Z" fill="white"/>
<path opacity="0.5" d="M157.789 72.4652H146.78C146.667 72.4668 146.555 72.4444 146.452 72.3994C146.349 72.3545 146.256 72.2882 146.18 72.2048C146.105 72.1213 146.048 72.0228 146.013 71.9156C145.978 71.8085 145.967 71.6952 145.98 71.5832C146.005 71.3445 146.117 71.1233 146.294 70.961C146.471 70.7987 146.701 70.7064 146.942 70.7012H157.951C158.063 70.6997 158.175 70.7221 158.278 70.767C158.381 70.8119 158.474 70.8783 158.55 70.9617C158.625 71.0451 158.682 71.1437 158.717 71.2509C158.752 71.358 158.763 71.4713 158.751 71.5832C158.725 71.822 158.613 72.0432 158.436 72.2055C158.259 72.3678 158.029 72.4601 157.789 72.4652Z" fill="white"/>
<path opacity="0.5" d="M150.081 77.2348H146.348C146.235 77.2363 146.124 77.2139 146.02 77.169C145.917 77.1241 145.825 77.0577 145.749 76.9743C145.673 76.8909 145.616 76.7923 145.581 76.6852C145.547 76.578 145.535 76.4647 145.548 76.3528C145.574 76.1141 145.685 75.893 145.862 75.7307C146.039 75.5683 146.269 75.476 146.509 75.4708H150.243C150.355 75.4692 150.467 75.4917 150.57 75.5366C150.674 75.5815 150.766 75.6479 150.842 75.7313C150.918 75.8147 150.975 75.9132 151.009 76.0204C151.044 76.1276 151.055 76.2409 151.043 76.3528C151.017 76.5915 150.905 76.8127 150.728 76.975C150.551 77.1373 150.321 77.2296 150.081 77.2348Z" fill="white"/>
<path opacity="0.5" d="M160.496 82.0063H145.908C145.796 82.0078 145.684 81.9854 145.581 81.9405C145.478 81.8956 145.385 81.8292 145.309 81.7458C145.234 81.6624 145.177 81.5638 145.142 81.4566C145.107 81.3495 145.096 81.2362 145.108 81.1243C145.134 80.8855 145.246 80.6643 145.423 80.502C145.6 80.3397 145.83 80.2474 146.07 80.2423H160.654C160.767 80.2407 160.879 80.2631 160.982 80.3081C161.085 80.353 161.178 80.4193 161.253 80.5027C161.329 80.5862 161.386 80.6847 161.421 80.7919C161.455 80.899 161.467 81.0123 161.454 81.1243C161.429 81.3624 161.317 81.583 161.141 81.7452C160.965 81.9074 160.736 82.0001 160.496 82.0063Z" fill="white"/>
<path opacity="0.5" d="M154.319 86.7768H145.479C145.366 86.7783 145.254 86.7559 145.151 86.711C145.048 86.6661 144.955 86.5997 144.88 86.5163C144.804 86.4329 144.747 86.3343 144.712 86.2272C144.678 86.12 144.666 86.0067 144.679 85.8948C144.704 85.6561 144.816 85.435 144.993 85.2726C145.17 85.1103 145.4 85.018 145.64 85.0128H154.48C154.592 85.0112 154.704 85.0337 154.807 85.0786C154.911 85.1235 155.003 85.1899 155.079 85.2733C155.154 85.3567 155.211 85.4552 155.246 85.5624C155.281 85.6695 155.292 85.7828 155.28 85.8948C155.254 86.1334 155.142 86.3544 154.965 86.5167C154.788 86.6789 154.559 86.7714 154.319 86.7768Z" fill="white"/>
<path opacity="0.5" d="M159.629 91.5473H145.045C144.933 91.5488 144.821 91.5264 144.718 91.4815C144.614 91.4366 144.522 91.3702 144.446 91.2868C144.37 91.2034 144.313 91.1048 144.279 90.9977C144.244 90.8905 144.233 90.7772 144.245 90.6653C144.271 90.4265 144.383 90.2054 144.56 90.0431C144.737 89.8808 144.967 89.7884 145.207 89.7833H159.792C159.905 89.7817 160.016 89.8042 160.12 89.8491C160.223 89.894 160.315 89.9603 160.391 90.0438C160.467 90.1272 160.524 90.2257 160.559 90.3329C160.593 90.4401 160.605 90.5534 160.592 90.6653C160.566 90.9042 160.454 91.1255 160.277 91.2878C160.1 91.4501 159.869 91.5424 159.629 91.5473Z" fill="white"/>
<path opacity="0.5" d="M155.621 96.3178H144.612C144.499 96.3193 144.387 96.2969 144.284 96.252C144.181 96.2071 144.088 96.1407 144.013 96.0573C143.937 95.9739 143.88 95.8753 143.845 95.7682C143.811 95.661 143.799 95.5477 143.812 95.4358C143.837 95.197 143.949 94.9759 144.126 94.8136C144.303 94.6513 144.533 94.5589 144.774 94.5538H155.783C155.895 94.5522 156.007 94.5747 156.11 94.6196C156.213 94.6645 156.306 94.7309 156.382 94.8143C156.457 94.8977 156.514 94.9963 156.549 95.1034C156.584 95.2106 156.595 95.3239 156.583 95.4358C156.557 95.6745 156.445 95.8957 156.268 96.058C156.091 96.2203 155.861 96.3126 155.621 96.3178Z" fill="white"/>
<path opacity="0.5" d="M147.912 101.088H144.176C144.063 101.09 143.952 101.067 143.848 101.023C143.745 100.978 143.653 100.911 143.577 100.828C143.501 100.744 143.444 100.646 143.41 100.539C143.375 100.432 143.363 100.318 143.376 100.206C143.402 99.9675 143.514 99.7464 143.691 99.5841C143.868 99.4218 144.098 99.3294 144.338 99.3243H148.076C148.189 99.3227 148.3 99.3452 148.404 99.3901C148.507 99.435 148.599 99.5014 148.675 99.5848C148.751 99.6682 148.808 99.7668 148.842 99.8739C148.877 99.9811 148.888 100.094 148.876 100.206C148.85 100.445 148.738 100.667 148.56 100.829C148.383 100.991 148.152 101.084 147.912 101.088Z" fill="white"/>
<path opacity="0.5" d="M158.326 105.86H143.742C143.63 105.861 143.518 105.839 143.415 105.794C143.312 105.749 143.219 105.683 143.143 105.599C143.068 105.516 143.011 105.417 142.976 105.31C142.941 105.203 142.93 105.09 142.942 104.978C142.968 104.739 143.08 104.518 143.257 104.356C143.434 104.193 143.664 104.101 143.904 104.096H158.488C158.601 104.094 158.713 104.117 158.816 104.162C158.919 104.206 159.012 104.273 159.087 104.356C159.163 104.44 159.22 104.538 159.255 104.645C159.289 104.753 159.301 104.866 159.288 104.978C159.262 105.217 159.151 105.438 158.974 105.6C158.797 105.762 158.567 105.855 158.326 105.86Z" fill="white"/>
<path opacity="0.5" d="M152.151 110.63H143.311C143.198 110.632 143.087 110.609 142.983 110.564C142.88 110.52 142.787 110.453 142.712 110.37C142.636 110.286 142.579 110.188 142.544 110.081C142.51 109.974 142.498 109.86 142.511 109.748C142.536 109.509 142.648 109.288 142.825 109.126C143.002 108.964 143.233 108.871 143.473 108.866H152.312C152.424 108.865 152.536 108.887 152.639 108.932C152.743 108.977 152.835 109.043 152.911 109.127C152.986 109.21 153.043 109.309 153.078 109.416C153.113 109.523 153.124 109.636 153.112 109.748C153.086 109.987 152.974 110.208 152.797 110.37C152.62 110.532 152.391 110.625 152.151 110.63Z" fill="white"/>
<path opacity="0.5" d="M157.459 115.401H142.875C142.763 115.402 142.651 115.38 142.548 115.335C142.444 115.29 142.352 115.224 142.276 115.14C142.201 115.057 142.143 114.958 142.109 114.851C142.074 114.744 142.063 114.631 142.075 114.519C142.101 114.28 142.213 114.059 142.39 113.897C142.567 113.734 142.797 113.642 143.037 113.637H157.619C157.732 113.635 157.843 113.658 157.947 113.703C158.05 113.748 158.143 113.814 158.218 113.897C158.294 113.981 158.351 114.079 158.386 114.186C158.42 114.294 158.432 114.407 158.419 114.519C158.393 114.757 158.282 114.978 158.105 115.14C157.929 115.303 157.699 115.395 157.459 115.401Z" fill="white"/>
</g>
<path d="M185.171 77.0723L182.005 74.3213L180.521 79.3853C180.521 79.3853 183.737 81.1293 184.851 79.5283L185.171 77.0723Z" fill="#FFC3BD"/>
<path d="M178.555 74.123L177.525 78.3671L180.517 79.387L182.001 74.322L178.555 74.123Z" fill="#FFC3BD"/>
<path d="M70.4766 97.0186C96.9862 97.0186 118.477 75.5282 118.477 49.0186C118.477 22.5089 96.9862 1.01855 70.4766 1.01855C43.9669 1.01855 22.4766 22.5089 22.4766 49.0186C22.4766 75.5282 43.9669 97.0186 70.4766 97.0186Z" fill="#EAECF0"/>
<g filter="url(#filter0_d_629_12250)">
<mask id="mask0_629_12250" style="mask-type:alpha" maskUnits="userSpaceOnUse" x="22" y="1" width="97" height="97">
<path d="M70.4766 97.0186C96.9862 97.0186 118.477 75.5282 118.477 49.0186C118.477 22.5089 96.9862 1.01855 70.4766 1.01855C43.9669 1.01855 22.4766 22.5089 22.4766 49.0186C22.4766 75.5282 43.9669 97.0186 70.4766 97.0186Z" fill="url(#paint0_linear_629_12250)"/>
</mask>
<g mask="url(#mask0_629_12250)">
<path d="M97.9959 28.5381H42.9559C41.1885 28.5381 39.7559 29.9708 39.7559 31.7381V98.9381C39.7559 100.705 41.1885 102.138 42.9559 102.138H97.9959C99.7632 102.138 101.196 100.705 101.196 98.9381V31.7381C101.196 29.9708 99.7632 28.5381 97.9959 28.5381Z" fill="white"/>
</g>
</g>
<path d="M64.7162 34.9385H48.0762C47.0159 34.9385 46.1562 35.7981 46.1562 36.8585C46.1562 37.9189 47.0159 38.7785 48.0762 38.7785H64.7162C65.7766 38.7785 66.6362 37.9189 66.6362 36.8585C66.6362 35.7981 65.7766 34.9385 64.7162 34.9385Z" fill="#EAECF0"/>
<path d="M64.7162 61.8184H48.0762C47.0159 61.8184 46.1562 62.678 46.1562 63.7384C46.1562 64.7987 47.0159 65.6584 48.0762 65.6584H64.7162C65.7766 65.6584 66.6362 64.7987 66.6362 63.7384C66.6362 62.678 65.7766 61.8184 64.7162 61.8184Z" fill="#EAECF0"/>
<path d="M91.5969 44.5381H49.3569C47.943 44.5381 46.7969 45.6842 46.7969 47.0981V53.4981C46.7969 54.9119 47.943 56.0581 49.3569 56.0581H91.5969C93.0107 56.0581 94.1569 54.9119 94.1569 53.4981V47.0981C94.1569 45.6842 93.0107 44.5381 91.5969 44.5381Z" stroke="#98A2B3" stroke-width="2"/>
<path d="M91.5962 70.7783H49.3562C47.5889 70.7783 46.1562 72.211 46.1562 73.9783V79.0983C46.1562 80.8656 47.5889 82.2983 49.3562 82.2983H91.5962C93.3636 82.2983 94.7962 80.8656 94.7962 79.0983V73.9783C94.7962 72.211 93.3636 70.7783 91.5962 70.7783Z" fill="#EAECF0"/>
<path d="M56.3959 21.4989C57.8098 21.4989 58.9559 20.3528 58.9559 18.9389C58.9559 17.5251 57.8098 16.3789 56.3959 16.3789C54.9821 16.3789 53.8359 17.5251 53.8359 18.9389C53.8359 20.3528 54.9821 21.4989 56.3959 21.4989Z" fill="white"/>
<path d="M70.476 21.4989C71.8899 21.4989 73.036 20.3528 73.036 18.9389C73.036 17.5251 71.8899 16.3789 70.476 16.3789C69.0622 16.3789 67.916 17.5251 67.916 18.9389C67.916 20.3528 69.0622 21.4989 70.476 21.4989Z" fill="#98A2B3"/>
<path d="M84.5561 21.4989C85.9699 21.4989 87.1161 20.3528 87.1161 18.9389C87.1161 17.5251 85.9699 16.3789 84.5561 16.3789C83.1422 16.3789 81.9961 17.5251 81.9961 18.9389C81.9961 20.3528 83.1422 21.4989 84.5561 21.4989Z" fill="white"/>
<path d="M77.5164 57.3385C79.2837 57.3385 80.7164 55.9058 80.7164 54.1385C80.7164 52.3712 79.2837 50.9385 77.5164 50.9385C75.7491 50.9385 74.3164 52.3712 74.3164 54.1385C74.3164 55.9058 75.7491 57.3385 77.5164 57.3385Z" fill="#EAECF0"/>
<path d="M80.0162 67.8153C79.5042 67.8153 79.0262 67.8153 78.591 67.7878C78.0549 67.7515 77.5392 67.5681 77.1006 67.2577C76.6621 66.9473 76.3176 66.5219 76.1052 66.0284L73.405 60.6921C73.207 60.4615 73.1081 60.162 73.1299 59.8588C73.1517 59.5556 73.2925 59.2734 73.5215 59.0735C73.7091 58.9227 73.9432 58.8415 74.1839 58.8438C74.3611 58.8489 74.5351 58.8924 74.6939 58.9713C74.8527 59.0502 74.9924 59.1626 75.1036 59.3007L76.3298 60.9743L76.3484 60.9961V54.6377C76.3484 54.3222 76.4737 54.0197 76.6968 53.7966C76.9198 53.5736 77.2224 53.4482 77.5378 53.4482C77.8533 53.4482 78.1558 53.5736 78.3789 53.7966C78.602 54.0197 78.7273 54.3222 78.7273 54.6377V58.7977C78.7135 58.6446 78.7317 58.4903 78.7808 58.3447C78.8299 58.199 78.9088 58.0652 79.0125 57.9518C79.1162 57.8383 79.2424 57.7477 79.383 57.6857C79.5236 57.6237 79.6757 57.5917 79.8294 57.5917C79.9831 57.5917 80.1351 57.6237 80.2757 57.6857C80.4164 57.7477 80.5425 57.8383 80.6462 57.9518C80.7499 58.0652 80.8288 58.199 80.8779 58.3447C80.927 58.4903 80.9453 58.6446 80.9314 58.7977V59.6649C80.9176 59.5118 80.9358 59.3575 80.985 59.2119C81.0341 59.0662 81.113 58.9324 81.2166 58.819C81.3203 58.7055 81.4465 58.6149 81.5872 58.5529C81.7278 58.4909 81.8798 58.4589 82.0335 58.4589C82.1872 58.4589 82.3392 58.4909 82.4799 58.5529C82.6205 58.6149 82.7467 58.7055 82.8504 58.819C82.9541 58.9324 83.033 59.0662 83.0821 59.2119C83.1312 59.3575 83.1494 59.5118 83.1356 59.6649V60.333C83.1218 60.18 83.14 60.0257 83.1891 59.88C83.2382 59.7344 83.3171 59.6006 83.4208 59.4871C83.5245 59.3737 83.6507 59.283 83.7913 59.221C83.932 59.159 84.084 59.127 84.2377 59.127C84.3914 59.127 84.5434 59.159 84.684 59.221C84.8247 59.283 84.9509 59.3737 85.0545 59.4871C85.1582 59.6006 85.2371 59.7344 85.2862 59.88C85.3353 60.0257 85.3536 60.18 85.3398 60.333V64.3887C85.318 65.6361 84.7542 67.7391 82.7708 67.7391C82.6268 67.7455 81.407 67.8159 80.0188 67.8159L80.0162 67.8153Z" fill="#98A2B3" stroke="white"/>
<defs>
<filter id="filter0_d_629_12250" x="33.7559" y="19.5381" width="73.4395" height="80.4805" filterUnits="userSpaceOnUse" color-interpolation-filters="sRGB">
<feFlood flood-opacity="0" result="BackgroundImageFix"/>
<feColorMatrix in="SourceAlpha" type="matrix" values="0 0 0 0 0 0 0 0 0 0 0 0 0 0 0 0 0 0 127 0" result="hardAlpha"/>
<feOffset dy="-3"/>
<feGaussianBlur stdDeviation="3"/>
<feColorMatrix type="matrix" values="0 0 0 0 0.788235 0 0 0 0 0.803922 0 0 0 0 0.85098 0 0 0 0.349 0"/>
<feBlend mode="normal" in2="BackgroundImageFix" result="effect1_dropShadow_629_12250"/>
<feBlend mode="normal" in="SourceGraphic" in2="effect1_dropShadow_629_12250" result="shape"/>
</filter>
<linearGradient id="paint0_linear_629_12250" x1="70.4766" y1="1.01855" x2="70.4766" y2="97.0186" gradientUnits="userSpaceOnUse">
<stop stop-color="#E3ECFA"/>
<stop offset="1" stop-color="#DAE7FF"/>
</linearGradient>
</defs>
</svg>
