<svg width="21" height="20" viewBox="0 0 21 20" fill="none" xmlns="http://www.w3.org/2000/svg">
<path d="M14.666 8.33341H16.3327C17.9993 8.33341 18.8327 7.50008 18.8327 5.83341V4.16675C18.8327 2.50008 17.9993 1.66675 16.3327 1.66675H14.666C12.9993 1.66675 12.166 2.50008 12.166 4.16675V5.83341C12.166 7.50008 12.9993 8.33341 14.666 8.33341Z" stroke="#A3A6A8" stroke-width="1.5" stroke-miterlimit="10" stroke-linecap="round" stroke-linejoin="round"/>
<path d="M4.66602 18.3334H6.33268C7.99935 18.3334 8.83268 17.5001 8.83268 15.8334V14.1667C8.83268 12.5001 7.99935 11.6667 6.33268 11.6667H4.66602C2.99935 11.6667 2.16602 12.5001 2.16602 14.1667V15.8334C2.16602 17.5001 2.99935 18.3334 4.66602 18.3334Z" stroke="#A3A6A8" stroke-width="1.5" stroke-miterlimit="10" stroke-linecap="round" stroke-linejoin="round"/>
<path d="M5.49935 8.33341C7.3403 8.33341 8.83268 6.84103 8.83268 5.00008C8.83268 3.15913 7.3403 1.66675 5.49935 1.66675C3.6584 1.66675 2.16602 3.15913 2.16602 5.00008C2.16602 6.84103 3.6584 8.33341 5.49935 8.33341Z" stroke="#A3A6A8" stroke-width="1.5" stroke-miterlimit="10" stroke-linecap="round" stroke-linejoin="round"/>
<path d="M15.4993 18.3334C17.3403 18.3334 18.8327 16.841 18.8327 15.0001C18.8327 13.1591 17.3403 11.6667 15.4993 11.6667C13.6584 11.6667 12.166 13.1591 12.166 15.0001C12.166 16.841 13.6584 18.3334 15.4993 18.3334Z" stroke="#A3A6A8" stroke-width="1.5" stroke-miterlimit="10" stroke-linecap="round" stroke-linejoin="round"/>
</svg>
