<svg width="21" height="20" viewBox="0 0 21 20" fill="none" xmlns="http://www.w3.org/2000/svg">
<path d="M14.666 8.33329H16.3327C17.9993 8.33329 18.8327 7.49996 18.8327 5.83329V4.16663C18.8327 2.49996 17.9993 1.66663 16.3327 1.66663H14.666C12.9993 1.66663 12.166 2.49996 12.166 4.16663V5.83329C12.166 7.49996 12.9993 8.33329 14.666 8.33329Z" fill="#0E1827" stroke="#0E1827" stroke-width="1.5" stroke-miterlimit="10" stroke-linecap="round" stroke-linejoin="round"/>
<path d="M4.66602 18.3333H6.33268C7.99935 18.3333 8.83268 17.5 8.83268 15.8333V14.1666C8.83268 12.5 7.99935 11.6666 6.33268 11.6666H4.66602C2.99935 11.6666 2.16602 12.5 2.16602 14.1666V15.8333C2.16602 17.5 2.99935 18.3333 4.66602 18.3333Z" fill="#0E1827" stroke="#0E1827" stroke-width="1.5" stroke-miterlimit="10" stroke-linecap="round" stroke-linejoin="round"/>
<path d="M5.49935 8.33329C7.3403 8.33329 8.83268 6.84091 8.83268 4.99996C8.83268 3.15901 7.3403 1.66663 5.49935 1.66663C3.6584 1.66663 2.16602 3.15901 2.16602 4.99996C2.16602 6.84091 3.6584 8.33329 5.49935 8.33329Z" fill="#0E1827" stroke="#0E1827" stroke-width="1.5" stroke-miterlimit="10" stroke-linecap="round" stroke-linejoin="round"/>
<path d="M15.4993 18.3333C17.3403 18.3333 18.8327 16.8409 18.8327 15C18.8327 13.159 17.3403 11.6666 15.4993 11.6666C13.6584 11.6666 12.166 13.159 12.166 15C12.166 16.8409 13.6584 18.3333 15.4993 18.3333Z" fill="#0E1827" stroke="#0E1827" stroke-width="1.5" stroke-miterlimit="10" stroke-linecap="round" stroke-linejoin="round"/>
</svg>
