<svg width="375" height="212" viewBox="0 0 375 212" fill="none" xmlns="http://www.w3.org/2000/svg">
<g clip-path="url(#clip0_13982_3450)">
<path fill-rule="evenodd" clip-rule="evenodd" d="M100.115 55.604C100.115 54.4994 101.011 53.604 102.115 53.604L271.703 53.604V126.414C271.703 127.212 272.178 127.933 272.911 128.25L373.793 171.807C374.526 172.123 375.001 172.845 375.001 173.643V211.997H262.001L101.234 133.138C100.549 132.802 100.115 132.106 100.115 131.343V55.604Z" fill="url(#paint0_linear_13982_3450)"/>
<path fill-rule="evenodd" clip-rule="evenodd" d="M173.248 14.2577L99.2786 39.4615V131.548L172.411 106.345L173.248 14.2577Z" fill="url(#paint1_linear_13982_3450)"/>
<path fill-rule="evenodd" clip-rule="evenodd" d="M172.947 14.2577L271.042 36.95V129.037L172.947 106.345V14.2577Z" fill="url(#paint2_linear_13982_3450)"/>
<g filter="url(#filter0_d_13982_3450)">
<path fill-rule="evenodd" clip-rule="evenodd" d="M169.908 18.6874C169.908 18.6874 191.503 27.7125 191.59 34.8495C191.669 41.233 175.358 49.5438 170.239 45.7284C164.517 41.4627 169.908 18.6874 169.908 18.6874Z" fill="url(#paint3_linear_13982_3450)"/>
<path fill-rule="evenodd" clip-rule="evenodd" d="M173.042 24.8373C173.042 24.8373 184.19 29.4965 184.235 33.181C184.276 36.4766 175.855 40.7671 173.213 38.7974C170.258 36.5952 173.042 24.8373 173.042 24.8373Z" fill="#FBA581"/>
<path fill-rule="evenodd" clip-rule="evenodd" d="M223.498 18.6875C223.498 18.6875 201.903 27.7127 201.816 34.8496C201.738 41.2332 218.048 49.5439 223.167 45.7286C228.889 41.4629 223.498 18.6875 223.498 18.6875Z" fill="url(#paint4_linear_13982_3450)"/>
<path fill-rule="evenodd" clip-rule="evenodd" d="M220.566 24.8373C220.566 24.8373 209.417 29.4965 209.372 33.181C209.332 36.4766 217.752 40.7671 220.395 38.7974C223.349 36.5952 220.566 24.8373 220.566 24.8373Z" fill="#FBA581"/>
<ellipse cx="197.033" cy="55.7658" rx="35.7185" ry="25.4392" fill="url(#paint5_linear_13982_3450)"/>
<path d="M186.739 39.0706C186.831 38.1949 187.085 35.784 187.085 35.784" stroke="white" stroke-width="1.46625" stroke-linecap="round"/>
<path d="M182.958 39.3506C182.863 38.7476 182.432 36.0262 182.432 36.0262" stroke="white" stroke-width="1.46625" stroke-linecap="round"/>
<path d="M206.784 39.0877C206.692 38.212 206.439 35.8011 206.439 35.8011" stroke="white" stroke-width="1.46625" stroke-linecap="round"/>
<path d="M210.565 39.3677C210.661 38.7646 211.092 36.0433 211.092 36.0433" stroke="white" stroke-width="1.46625" stroke-linecap="round"/>
<path fill-rule="evenodd" clip-rule="evenodd" d="M187.856 31.9623C187.856 31.9623 191.634 28.7534 197.399 26.73C195.804 28.2819 194.25 29.2385 194.132 32.4377C194.013 35.637 187.856 31.9623 187.856 31.9623Z" fill="#FFD29F"/>
<path fill-rule="evenodd" clip-rule="evenodd" d="M192.881 30.3036C192.881 30.3036 197.498 28.4994 203.607 28.4631C201.594 29.4112 199.813 29.8097 198.66 32.7962C197.507 35.7826 192.881 30.3036 192.881 30.3036Z" fill="#FFD29F"/>
<path fill-rule="evenodd" clip-rule="evenodd" d="M169.62 43.9163C169.62 43.9163 165.356 46.4431 161.566 51.2354C163.553 50.2326 164.963 49.0747 168.027 50.0044C171.09 50.9342 169.62 43.9163 169.62 43.9163Z" fill="#FFC083"/>
<path fill-rule="evenodd" clip-rule="evenodd" d="M167.654 48.4646C167.654 48.4646 163.39 50.9915 159.6 55.7837C161.586 54.781 162.997 53.623 166.06 54.5528C169.124 55.4825 167.654 48.4646 167.654 48.4646Z" fill="#FFC083"/>
<path fill-rule="evenodd" clip-rule="evenodd" d="M168.563 51.4331C168.563 51.4331 160.427 54.5457 159.282 62.3938C161.478 59.3716 163.028 58.1901 167.847 58.4327C172.665 58.6753 168.563 51.4331 168.563 51.4331Z" fill="#FFC083"/>
<path fill-rule="evenodd" clip-rule="evenodd" d="M162.538 58.5124C162.538 58.5124 159.813 62.6527 158.507 68.6214C159.853 66.8492 160.613 65.1902 163.774 64.6829C166.935 64.1756 162.538 58.5124 162.538 58.5124Z" fill="#FFC083"/>
<path fill-rule="evenodd" clip-rule="evenodd" d="M162.762 63.4626C162.762 63.4626 160.038 67.6029 158.732 73.5716C160.078 71.7994 160.838 70.1404 163.999 69.6331C167.16 69.1258 162.762 63.4626 162.762 63.4626Z" fill="#FFC083"/>
<path fill-rule="evenodd" clip-rule="evenodd" d="M164.881 65.7321C164.881 65.7321 158.933 72.0962 161.344 79.6521C161.994 75.9727 162.869 74.2314 167.306 72.3373C171.743 70.4432 164.881 65.7321 164.881 65.7321Z" fill="#FFC083"/>
<path fill-rule="evenodd" clip-rule="evenodd" d="M173.222 60.8176C173.222 60.8176 172.674 65.7436 174.22 71.6545C174.615 69.4645 174.539 67.6413 177.125 65.7542C179.711 63.8671 173.222 60.8176 173.222 60.8176Z" fill="#FFC083"/>
<path fill-rule="evenodd" clip-rule="evenodd" d="M175.671 65.1252C175.671 65.1252 175.123 70.0512 176.67 75.9621C177.064 73.7721 176.988 71.9489 179.574 70.0618C182.161 68.1747 175.671 65.1252 175.671 65.1252Z" fill="#FFC083"/>
<path fill-rule="evenodd" clip-rule="evenodd" d="M178.59 66.1852C178.59 66.1852 176.18 74.5559 181.758 80.1937C180.666 76.6204 180.656 74.6715 183.749 70.9695C186.843 67.2676 178.59 66.1852 178.59 66.1852Z" fill="#FFC083"/>
<path fill-rule="evenodd" clip-rule="evenodd" d="M180.082 73.5452C180.082 73.5452 181.991 78.1192 186.209 82.5394C185.492 80.4326 184.542 78.8748 185.889 75.9705C187.236 73.0662 180.082 73.5452 180.082 73.5452Z" fill="#FFC083"/>
<path fill-rule="evenodd" clip-rule="evenodd" d="M184.314 76.1253C184.314 76.1253 186.223 80.6993 190.441 85.1195C189.725 83.0126 188.774 81.4549 190.121 78.5506C191.468 75.6463 184.314 76.1253 184.314 76.1253Z" fill="#FFC083"/>
<path fill-rule="evenodd" clip-rule="evenodd" d="M187.381 75.6388C187.381 75.6388 189.331 84.1285 196.944 86.355C194.256 83.7589 193.302 82.0595 194.213 77.322C195.124 72.5845 187.381 75.6388 187.381 75.6388Z" fill="#FFC083"/>
<path fill-rule="evenodd" clip-rule="evenodd" d="M223.993 43.916C223.993 43.916 228.257 46.4429 232.047 51.2352C230.06 50.2324 228.65 49.0745 225.586 50.0042C222.523 50.9339 223.993 43.916 223.993 43.916Z" fill="#FFC083"/>
<path fill-rule="evenodd" clip-rule="evenodd" d="M225.96 48.4648C225.96 48.4648 230.224 50.9917 234.014 55.784C232.027 54.7812 230.617 53.6233 227.553 54.553C224.49 55.4828 225.96 48.4648 225.96 48.4648Z" fill="#FFC083"/>
<path fill-rule="evenodd" clip-rule="evenodd" d="M225.051 51.4328C225.051 51.4328 233.186 54.5455 234.332 62.3936C232.135 59.3713 230.585 58.1899 225.767 58.4325C220.948 58.6751 225.051 51.4328 225.051 51.4328Z" fill="#FFC083"/>
<path fill-rule="evenodd" clip-rule="evenodd" d="M231.074 58.5124C231.074 58.5124 233.798 62.6527 235.104 68.6214C233.758 66.8492 232.998 65.1902 229.837 64.6829C226.676 64.1756 231.074 58.5124 231.074 58.5124Z" fill="#FFC083"/>
<path fill-rule="evenodd" clip-rule="evenodd" d="M230.849 63.4626C230.849 63.4626 233.574 67.6029 234.879 73.5716C233.533 71.7994 232.773 70.1404 229.612 69.6331C226.451 69.1258 230.849 63.4626 230.849 63.4626Z" fill="#FFC083"/>
<path fill-rule="evenodd" clip-rule="evenodd" d="M228.73 65.7321C228.73 65.7321 234.678 72.0962 232.267 79.6521C231.618 75.9727 230.742 74.2314 226.305 72.3373C221.869 70.4432 228.73 65.7321 228.73 65.7321Z" fill="#FFC083"/>
<path fill-rule="evenodd" clip-rule="evenodd" d="M223.397 60.8179C223.397 60.8179 223.945 65.7438 222.399 71.6548C222.004 69.4647 222.08 67.6415 219.494 65.7544C216.908 63.8674 223.397 60.8179 223.397 60.8179Z" fill="#FFC083"/>
<path fill-rule="evenodd" clip-rule="evenodd" d="M220.948 65.1255C220.948 65.1255 221.496 70.0515 219.95 75.9624C219.555 73.7723 219.631 71.9491 217.045 70.0621C214.459 68.175 220.948 65.1255 220.948 65.1255Z" fill="#FFC083"/>
<path fill-rule="evenodd" clip-rule="evenodd" d="M218.029 66.1854C218.029 66.1854 220.44 74.5561 214.861 80.194C215.953 76.6207 215.963 74.6718 212.87 70.9698C209.777 67.2678 218.029 66.1854 218.029 66.1854Z" fill="#FFC083"/>
<path fill-rule="evenodd" clip-rule="evenodd" d="M216.537 73.5428C216.537 73.5428 214.628 78.1168 210.41 82.5369C211.127 80.4301 212.077 78.8723 210.73 75.9681C209.383 73.0638 216.537 73.5428 216.537 73.5428Z" fill="#FFC083"/>
<path fill-rule="evenodd" clip-rule="evenodd" d="M212.305 76.1229C212.305 76.1229 210.396 80.6969 206.178 85.117C206.894 83.0102 207.845 81.4524 206.498 78.5481C205.151 75.6439 212.305 76.1229 212.305 76.1229Z" fill="#FFC083"/>
<path fill-rule="evenodd" clip-rule="evenodd" d="M209.238 75.6363C209.238 75.6363 207.288 84.1261 199.676 86.3525C202.363 83.7565 203.317 82.0571 202.406 77.3196C201.495 72.582 209.238 75.6363 209.238 75.6363Z" fill="#FFC083"/>
<path d="M192.527 48.7429C192.527 52.3657 189.563 55.3157 185.89 55.3157C182.218 55.3157 179.254 52.3657 179.254 48.7429C179.254 45.12 182.218 42.17 185.89 42.17C189.563 42.17 192.527 45.12 192.527 48.7429Z" fill="white" stroke="#E5AB74" stroke-width="1.8"/>
<path d="M183.598 50.3287C184.143 47.8021 188.035 47.7602 188.742 50.3287" stroke="#767676" stroke-width="1.56" stroke-linecap="round"/>
<path d="M214.811 48.7429C214.811 52.3657 211.846 55.3157 208.174 55.3157C204.501 55.3157 201.537 52.3657 201.537 48.7429C201.537 45.12 204.501 42.17 208.174 42.17C211.846 42.17 214.811 45.12 214.811 48.7429Z" fill="white" stroke="#E5AB74" stroke-width="1.8"/>
<path d="M205.881 50.3287C206.426 47.8021 210.318 47.7602 211.026 50.3287" stroke="#767676" stroke-width="1.56" stroke-linecap="round"/>
<ellipse cx="194.568" cy="58.4078" rx="2.08738" ry="1.81555" fill="white"/>
<ellipse cx="2.08738" cy="1.81555" rx="2.08738" ry="1.81555" transform="matrix(-1 0 0 1 201.738 56.5923)" fill="white"/>
<path d="M201.764 59.0472C200.602 60.6893 197.062 60.1803 197.219 56.8125" stroke="#E08063" stroke-width="1.404" stroke-linecap="round"/>
<path d="M192.496 59.0472C193.657 60.6893 197.198 60.1803 197.041 56.8125" stroke="#E08063" stroke-width="1.404" stroke-linecap="round"/>
<path d="M195.264 56.6052H198.818" stroke="#78625B" stroke-width="1.404" stroke-linecap="round"/>
<path d="M186.505 59.6051C184.4 59.6051 174.898 59.6051 174.898 59.6051" stroke="white" stroke-width="1.38" stroke-linecap="round"/>
<path d="M186.362 62.1316C185.117 62.3963 179.496 63.5909 179.496 63.5909" stroke="white" stroke-width="1.38" stroke-linecap="round"/>
<path d="M208.215 59.6049C210.321 59.6049 219.822 59.6049 219.822 59.6049" stroke="white" stroke-width="1.38" stroke-linecap="round"/>
<path d="M208.358 62.1313C209.604 62.3961 215.224 63.5907 215.224 63.5907" stroke="white" stroke-width="1.38" stroke-linecap="round"/>
</g>
<path fill-rule="evenodd" clip-rule="evenodd" d="M99.2776 39.3723L197.372 62.0646V158.337L99.2776 131.459V39.3723Z" fill="#DEEAF4"/>
<g style="mix-blend-mode:multiply" opacity="0.133718" filter="url(#filter1_d_13982_3450)">
<path fill-rule="evenodd" clip-rule="evenodd" d="M99.2776 39.3723L197.372 62.0646V158.337L99.2776 131.459V39.3723Z" fill="url(#paint6_linear_13982_3450)"/>
</g>
<path fill-rule="evenodd" clip-rule="evenodd" d="M272.031 36.8608L197.225 62.0646V158.337L271.194 128.948L272.031 36.8608Z" fill="#D2DEE9"/>
<g style="mix-blend-mode:multiply" opacity="0.133718" filter="url(#filter2_d_13982_3450)">
<path fill-rule="evenodd" clip-rule="evenodd" d="M272.031 36.8608L197.225 62.0646V158.337L271.194 128.948L272.031 36.8608Z" fill="url(#paint7_linear_13982_3450)"/>
</g>
<path fill-rule="evenodd" clip-rule="evenodd" d="M271.72 36.793L297.873 73.2517L222.169 103.135L197.024 61.4222L271.72 36.793Z" fill="url(#paint8_linear_13982_3450)"/>
<g opacity="0.6">
<path fill-rule="evenodd" clip-rule="evenodd" d="M204.777 98.1011L204.439 102.281L203.836 105.248L204.053 107.798L204.599 111.633L203.956 146.322L204.711 135.532L206.118 134.6L205.106 129.878L205.289 111.681L205.11 107.101L205.73 105.38L205.249 102.338L205.314 89.7646L204.777 98.1011Z" fill="#ACBBCB"/>
<path fill-rule="evenodd" clip-rule="evenodd" d="M210.364 128.581L210.122 123.891L210.453 106.603L209.799 111.932L209.282 110.193L209.456 114.724L209.436 123.807L209.054 126.919L209.559 128.482L209.605 134.763L210.364 128.581Z" fill="#ACBBCB"/>
<path fill-rule="evenodd" clip-rule="evenodd" d="M213.182 138.865L213.552 135.069L213.206 132.345L213.376 130.034L213.771 126.566L213.798 94.9753L214.142 104.824L214.183 108.003L214.322 109.985L214.21 126.551L214.292 130.59L214.411 132.303L214.067 135.051L213.951 146.495L213.182 138.865Z" fill="#ACBBCB"/>
</g>
<path fill-rule="evenodd" clip-rule="evenodd" d="M99.6778 38.5352L75 76.6178L170.382 102.159L198.062 61.2281L99.6778 38.5352Z" fill="url(#paint9_linear_13982_3450)"/>
<mask id="mask0_13982_3450" style="mask-type:luminance" maskUnits="userSpaceOnUse" x="75" y="38" width="124" height="65">
<path fill-rule="evenodd" clip-rule="evenodd" d="M99.6778 38.5352L75 76.6178L170.382 102.159L198.062 61.2281L99.6778 38.5352Z" fill="white"/>
</mask>
<g mask="url(#mask0_13982_3450)">
<g opacity="0.4">
<path fill-rule="evenodd" clip-rule="evenodd" d="M124.046 67.7194L126.548 64.3538L128.631 62.1579L129.798 59.8799L131.368 56.3381L150.295 27.2612L143.938 36.0115L142.251 36.0561L140.606 40.5968L130.808 55.9316L128.532 59.9108L127.095 61.0418L125.891 63.8765L119.173 74.5046L124.046 67.7194Z" fill="#ACBBCB"/>
<path fill-rule="evenodd" clip-rule="evenodd" d="M135.459 38.9106L133.18 43.0162L123.738 57.5017L127.116 53.3293L126.633 55.0775L128.887 51.1428L133.717 43.4514L135.69 41.0146L136.09 39.4216L139.379 34.0703L135.459 38.9106Z" fill="#ACBBCB"/>
<path fill-rule="evenodd" clip-rule="evenodd" d="M138.52 28.6944L136.195 31.7179L135.045 34.2117L133.676 36.0816L131.503 38.8129L114.74 65.5893L119.667 57.0545L121.316 54.3373L122.25 52.5822L131.123 38.5933L133.193 35.124L134.001 33.6089L135.748 31.4601L141.911 21.8172L138.52 28.6944Z" fill="#ACBBCB"/>
</g>
</g>
</g>
<defs>
<filter id="filter0_d_13982_3450" x="136.507" y="16.6874" width="120.597" height="111.668" filterUnits="userSpaceOnUse" color-interpolation-filters="sRGB">
<feFlood flood-opacity="0" result="BackgroundImageFix"/>
<feColorMatrix in="SourceAlpha" type="matrix" values="0 0 0 0 0 0 0 0 0 0 0 0 0 0 0 0 0 0 127 0" result="hardAlpha"/>
<feOffset dy="20"/>
<feGaussianBlur stdDeviation="11"/>
<feColorMatrix type="matrix" values="0 0 0 0 0.0469255 0 0 0 0 0.264214 0 0 0 0 0.449378 0 0 0 0.5 0"/>
<feBlend mode="normal" in2="BackgroundImageFix" result="effect1_dropShadow_13982_3450"/>
<feBlend mode="normal" in="SourceGraphic" in2="effect1_dropShadow_13982_3450" result="shape"/>
</filter>
<filter id="filter1_d_13982_3450" x="99.2776" y="39.3723" width="98.0947" height="120.965" filterUnits="userSpaceOnUse" color-interpolation-filters="sRGB">
<feFlood flood-opacity="0" result="BackgroundImageFix"/>
<feColorMatrix in="SourceAlpha" type="matrix" values="0 0 0 0 0 0 0 0 0 0 0 0 0 0 0 0 0 0 127 0" result="hardAlpha"/>
<feOffset dy="2"/>
<feColorMatrix type="matrix" values="0 0 0 0 0.234731 0 0 0 0 0.347049 0 0 0 0 0.474516 0 0 0 1 0"/>
<feBlend mode="normal" in2="BackgroundImageFix" result="effect1_dropShadow_13982_3450"/>
<feBlend mode="normal" in="SourceGraphic" in2="effect1_dropShadow_13982_3450" result="shape"/>
</filter>
<filter id="filter2_d_13982_3450" x="197.225" y="36.8608" width="74.8064" height="123.477" filterUnits="userSpaceOnUse" color-interpolation-filters="sRGB">
<feFlood flood-opacity="0" result="BackgroundImageFix"/>
<feColorMatrix in="SourceAlpha" type="matrix" values="0 0 0 0 0 0 0 0 0 0 0 0 0 0 0 0 0 0 127 0" result="hardAlpha"/>
<feOffset dy="2"/>
<feColorMatrix type="matrix" values="0 0 0 0 0.234731 0 0 0 0 0.347049 0 0 0 0 0.474516 0 0 0 1 0"/>
<feBlend mode="normal" in2="BackgroundImageFix" result="effect1_dropShadow_13982_3450"/>
<feBlend mode="normal" in="SourceGraphic" in2="effect1_dropShadow_13982_3450" result="shape"/>
</filter>
<linearGradient id="paint0_linear_13982_3450" x1="307.678" y1="185.064" x2="306.453" y2="104.219" gradientUnits="userSpaceOnUse">
<stop stop-color="white" stop-opacity="0.01"/>
<stop offset="1" stop-color="#A4BFD5"/>
</linearGradient>
<linearGradient id="paint1_linear_13982_3450" x1="150.247" y1="-6.76404" x2="189.079" y2="19.0677" gradientUnits="userSpaceOnUse">
<stop stop-color="#CDD6DE"/>
<stop offset="1" stop-color="#9FACBA"/>
</linearGradient>
<linearGradient id="paint2_linear_13982_3450" x1="208.023" y1="11.1573" x2="200.859" y2="43.4387" gradientUnits="userSpaceOnUse">
<stop stop-color="#D8E2EA"/>
<stop offset="1" stop-color="#B0C1D0"/>
</linearGradient>
<linearGradient id="paint3_linear_13982_3450" x1="176.239" y1="-2.21499" x2="159.895" y2="33.6457" gradientUnits="userSpaceOnUse">
<stop stop-color="#FFE7C2"/>
<stop offset="1" stop-color="#FFCB8F"/>
</linearGradient>
<linearGradient id="paint4_linear_13982_3450" x1="217.167" y1="-2.21487" x2="233.511" y2="33.6458" gradientUnits="userSpaceOnUse">
<stop stop-color="#FFE7C2"/>
<stop offset="1" stop-color="#FFCB8F"/>
</linearGradient>
<linearGradient id="paint5_linear_13982_3450" x1="169.036" y1="8.45632" x2="165.524" y2="48.6303" gradientUnits="userSpaceOnUse">
<stop stop-color="#FFE2B9"/>
<stop offset="1" stop-color="#FFC083"/>
</linearGradient>
<linearGradient id="paint6_linear_13982_3450" x1="144.298" y1="134.375" x2="166.954" y2="89.8456" gradientUnits="userSpaceOnUse">
<stop stop-color="white" stop-opacity="0.01"/>
<stop offset="1" stop-color="#132E3C"/>
</linearGradient>
<linearGradient id="paint7_linear_13982_3450" x1="237.699" y1="133.869" x2="211.065" y2="94.7739" gradientUnits="userSpaceOnUse">
<stop stop-color="white" stop-opacity="0.01"/>
<stop offset="1" stop-color="#132E3C"/>
</linearGradient>
<linearGradient id="paint8_linear_13982_3450" x1="249.286" y1="49.97" x2="260.862" y2="87.8539" gradientUnits="userSpaceOnUse">
<stop stop-color="#F1F6FA"/>
<stop offset="1" stop-color="#DEEAF4"/>
</linearGradient>
<linearGradient id="paint9_linear_13982_3450" x1="101.157" y1="44.5351" x2="99.0092" y2="89.6485" gradientUnits="userSpaceOnUse">
<stop stop-color="#F1F6FA"/>
<stop offset="1" stop-color="#DEEAF4"/>
</linearGradient>
<clipPath id="clip0_13982_3450">
<rect width="375" height="212" fill="white"/>
</clipPath>
</defs>
</svg>
