<svg right='20' width="286" height="236" viewBox="0 0 286 236" fill="none" xmlns="http://www.w3.org/2000/svg">
<path fill-rule="evenodd" clip-rule="evenodd" d="M249 213.5C249 222.613 213.182 230 169 230C124.817 230 89 222.613 89 213.5C89 204.387 124.817 197 169 197C213.182 197 249 204.387 249 213.5Z" fill="#F2F3FB"/>
<path fill-rule="evenodd" clip-rule="evenodd" d="M227.439 129H122V98.1893C122 84.8301 132.793 74 146.109 74H205.89C219.206 74 230 84.8301 230 98.1893V126.431C230 127.85 228.854 129 227.439 129Z" fill="#BEC0D5"/>
<path fill-rule="evenodd" clip-rule="evenodd" d="M227 124H119V97.8928C119 84.697 129.793 74 143.109 74H202.89C216.206 74 227 84.697 227 97.8928V124Z" fill="#D8DBE8"/>
<path fill-rule="evenodd" clip-rule="evenodd" d="M143 77C131.402 77 122 86.2996 122 97.7723V124H164V97.7723C164 86.2996 154.598 77 143 77Z" fill="#FEFEFE"/>
<path fill-rule="evenodd" clip-rule="evenodd" d="M119 97V98C119 97.6651 119.014 97.333 119.026 97H119Z" fill="#E7EAF0"/>
<path fill-rule="evenodd" clip-rule="evenodd" d="M224.027 97H224C224.012 97.333 224.027 97.6651 224.027 98V97Z" fill="#E7EAF0"/>
<path fill-rule="evenodd" clip-rule="evenodd" d="M202.216 74H143.189C143.125 74 143.063 74.004 143 74.0049C155.483 74.1069 165.573 84.2773 165.573 96.8138V97H226C225.548 84.2214 215.076 74 202.216 74Z" fill="#E7EAF0"/>
<path fill-rule="evenodd" clip-rule="evenodd" d="M226 128H107.171C105.971 128 105 127.104 105 126C105 124.895 105.971 124 107.171 124H226V128Z" fill="#D8DBE8"/>
<mask id="mask0_11611_6057" style="mask-type:luminance" maskUnits="userSpaceOnUse" x="0" y="5" width="286" height="231">
<path fill-rule="evenodd" clip-rule="evenodd" d="M0 236H286V5H0V236Z" fill="white"/>
</mask>
<g mask="url(#mask0_11611_6057)">
<path fill-rule="evenodd" clip-rule="evenodd" d="M166 214H175V128H166V214Z" fill="#F0F1F5"/>
<path fill-rule="evenodd" clip-rule="evenodd" d="M169 214H175V128H169V214Z" fill="#BEC0D5"/>
<path fill-rule="evenodd" clip-rule="evenodd" d="M181.058 134H159.941C157.764 134 156 132.358 156 130.33V128H185V130.33C185 132.358 183.235 134 181.058 134Z" fill="#BEC0D5"/>
<path fill-rule="evenodd" clip-rule="evenodd" d="M156 130H185V128H156V130Z" fill="#F0F1F5"/>
<path fill-rule="evenodd" clip-rule="evenodd" d="M170.5 208C162.492 208 156 211.335 156 215.449C156 219.562 162.492 220 170.5 220C178.508 220 185 219.562 185 215.449C185 211.335 178.508 208 170.5 208Z" fill="#BEC0D5"/>
<path fill-rule="evenodd" clip-rule="evenodd" d="M166.535 217.457C169.458 214.078 168.981 210.154 168.958 208C160.896 208 156 211.172 156 215.118C156 217.257 157.92 218.36 160.962 218.922C160.962 218.922 164.759 219.511 166.535 217.457Z" fill="#F0F1F5"/>
<path fill-rule="evenodd" clip-rule="evenodd" d="M195.914 110.463C195.383 113.453 192.527 115.446 189.537 114.914C186.548 114.383 184.554 111.528 185.086 108.538C185.617 105.548 188.472 103.554 191.463 104.086C194.453 104.618 196.446 107.473 195.914 110.463Z" fill="#BEC0D5"/>
<path fill-rule="evenodd" clip-rule="evenodd" d="M194.836 109.701C194.173 112.096 191.693 113.498 189.299 112.836C186.905 112.172 185.501 109.694 186.164 107.299C186.827 104.905 189.307 103.501 191.701 104.164C194.095 104.828 195.499 107.306 194.836 109.701Z" fill="#0E1827"/>
<path fill-rule="evenodd" clip-rule="evenodd" d="M211.784 81.4713L199.248 78.072C198.173 77.78 197.049 78.4028 196.751 79.4555L195.03 85.5393L194.222 88.3956L188 110.387L190.258 111L196.479 89.0074L208.713 92.3243C211.763 93.1514 214.947 91.3857 215.792 88.4011C216.637 85.4158 214.833 82.2975 211.784 81.4713Z" fill="#0E1827"/>
<path d="M75 28.611C73.9952 28.376 72.9942 28.172 72 28" stroke="#9D9D9D"/>
<path d="M65.134 28.0476C33.038 26.8581 7.99919 48.1745 8 68.9415C8 89.8373 26.0704 114.856 54.556 109.184C83.0416 103.512 85.2464 85.1654 111.527 85.1654C127.624 85.1654 147.513 95.6088 157 101.196" stroke="#D7DAE9" stroke-dasharray="8.08 8.08"/>
<path d="M160 103C161.917 104.24 163 105 163 105" stroke="#9D9D9D"/>
<path d="M287 68.9269C287 68.9269 285.346 69.2471 284.243 68.5476C282.296 67.3128 283.021 65.6817 281.541 64.9401C279.702 64.0172 278.748 65.9165 276.985 65.0326C274.914 63.9937 276.28 62.3008 274.325 61.32C272.278 60.2937 270.775 61.939 268.845 60.9708C267.841 60.4667 267.712 59.9746 267.284 59.042C266.821 58.0365 266.911 57.1619 265.649 56.533C263.987 55.7059 262.754 57.4585 260.707 56.4323C258.752 55.4514 260.117 53.7585 258.046 52.7197C256.283 51.8357 255.33 53.735 253.49 52.8127C252.011 52.0705 252.789 50.3612 250.789 49.2047C249.155 48.2605 247.847 49.1193 247.003 48.995C245.527 48.7783 245 47 245 47" stroke="#0E1827"/>
<path d="M68 171C68 171 68.1173 169.286 69.1381 168.401C70.9396 166.841 72.4263 168.017 73.5929 166.775C75.0431 165.231 73.341 163.754 74.7303 162.275C76.3628 160.538 77.7408 162.36 79.2819 160.718C80.8952 159.002 79.6046 157.058 81.1265 155.439C81.9179 154.596 82.4607 154.609 83.5391 154.453C84.7024 154.286 85.5806 154.623 86.5722 153.563C87.8746 152.166 86.4005 150.456 88.0132 148.739C89.5556 147.098 90.9329 148.92 92.5654 147.182C93.9547 145.703 92.2532 144.226 93.7028 142.683C94.8694 141.441 96.423 142.69 98.1576 141.056C99.5747 139.722 99.0425 138.192 99.3984 137.399C100.022 136.011 102 136 102 136" stroke="#0E1827"/>
<path fill-rule="evenodd" clip-rule="evenodd" d="M57.9317 132.384C57.7232 131.718 56.8167 130.908 54.8606 131.571C53.4594 132.045 51.2104 133.38 50.1212 134.344C50.6865 132.944 51.2483 130.228 51.2483 128.685C51.2483 126.546 50.166 126 49.4939 126C48.8234 126 47.8032 126.65 47.8032 128.789C47.8032 130.325 48.3288 132.965 48.8717 134.342C47.7687 133.349 45.4628 131.953 44.053 131.476C42.0969 130.815 41.2662 131.718 41.0577 132.384C40.8509 133.048 41.1284 134.259 43.0827 134.92C44.4839 135.395 47.0569 135.691 48.4839 135.576C47.2362 136.364 45.2491 138.216 44.377 139.464C43.1706 141.196 43.7376 142.299 44.2805 142.71C44.8251 143.121 46.016 143.222 47.2241 141.49C48.0893 140.248 49.1561 137.791 49.4939 136.343C49.8265 137.822 50.9036 140.363 51.7739 141.612C52.9821 143.342 54.1643 143.121 54.7089 142.71C55.2518 142.299 55.7102 141.151 54.5038 139.419C53.637 138.179 51.7205 136.363 50.5038 135.58C51.9566 135.709 54.6107 135.426 56.0205 134.95C57.9748 134.29 58.1385 133.048 57.9317 132.384Z" fill="#0E1827"/>
<path fill-rule="evenodd" clip-rule="evenodd" d="M69.9995 85.637C70.0151 85.2825 69.6983 84.7281 68.5763 84.6842C67.7727 84.6524 66.3792 84.8766 65.6457 85.1356C66.1903 84.5721 66.9721 83.38 67.2515 82.6438C67.6416 81.6229 67.1859 81.1624 66.8426 81.0397C66.4993 80.9155 65.8595 81.0382 65.4694 82.0591C65.1901 82.7923 64.9778 84.1495 65.0059 84.9053C64.6221 84.2282 63.6951 83.1391 63.0616 82.6514C62.1799 81.9758 61.5885 82.2545 61.3622 82.5348C61.1344 82.8135 61.0579 83.4421 61.938 84.1177C62.5685 84.6009 63.8325 85.2159 64.5815 85.4234C63.7997 85.5703 62.4452 86.0884 61.7742 86.5231C60.8395 87.1275 60.93 87.7591 61.1328 88.0545C61.3357 88.3514 61.9287 88.618 62.8618 88.0136C63.5297 87.5804 64.5238 86.6034 64.9607 85.9748C64.8608 86.7412 64.9513 88.153 65.1682 88.9088C65.4725 89.9571 66.1186 90.0691 66.4712 89.9722C66.8239 89.8768 67.2686 89.4133 66.9659 88.3635C66.7474 87.6122 66.0967 86.3943 65.6161 85.7975C66.337 86.1247 67.7477 86.4792 68.5545 86.511C69.6764 86.5549 69.9854 85.9914 69.9995 85.637Z" fill="#DFE1EC"/>
<path fill-rule="evenodd" clip-rule="evenodd" d="M166.677 48.1143C166.341 47.8998 165.637 47.8928 164.996 48.9448C164.535 49.699 164.006 51.1658 163.865 52.0166C163.611 51.1755 162.877 49.7513 162.316 49.0662C161.537 48.1152 160.851 48.2942 160.547 48.5548C160.244 48.8145 160.02 49.4987 160.798 50.4497C161.357 51.1303 162.554 52.0999 163.301 52.4996C162.441 52.4881 160.892 52.7628 160.082 53.0978C158.959 53.5622 158.913 54.2872 159.061 54.663C159.21 55.0379 159.774 55.4686 160.898 55.0033C161.703 54.6701 162.974 53.8024 163.575 53.1998C163.298 54.0329 163.075 55.6273 163.135 56.5189C163.22 57.757 163.878 58.0264 164.273 57.998C164.667 57.9697 165.242 57.5514 165.157 56.3141C165.096 55.4261 164.683 53.9212 164.309 53.1484C164.998 53.6757 166.408 54.3856 167.256 54.6018C168.43 54.9023 168.884 54.3439 168.98 53.9513C169.075 53.5578 168.864 52.8692 167.689 52.5687C166.847 52.3543 165.322 52.2913 164.488 52.4163C165.191 51.9093 166.286 50.7545 166.749 49.9959C167.39 48.9439 167.013 48.3288 166.677 48.1143Z" fill="#DFE1EC"/>
<path fill-rule="evenodd" clip-rule="evenodd" d="M225.042 33.2621C222.44 32.2808 220.33 30.6549 219.046 28.6399L218 27L217.173 28.391C215.883 30.5592 213.651 32.3046 210.869 33.3182L209 34.0002L210.929 34.7541C213.248 35.6608 215.167 37.085 216.44 38.8448L218 41L219.198 39.2375C220.392 37.4826 222.221 36.0382 224.459 35.0834L227 34.0002L225.042 33.2621Z" fill="#E8E9EB"/>
<path fill-rule="evenodd" clip-rule="evenodd" d="M232.347 21.7892C231.48 21.5089 230.776 21.044 230.349 20.4682L230 20L229.724 20.3973C229.295 21.0168 228.55 21.5155 227.623 21.8053L227 22.0002L227.643 22.2154C228.416 22.4746 229.056 22.8814 229.48 23.3842L230 24L230.399 23.4968C230.797 22.9952 231.407 22.5822 232.153 22.3097L233 22.0002L232.347 21.7892Z" fill="#E8E9EB"/>
<path fill-rule="evenodd" clip-rule="evenodd" d="M211.347 26.7892C210.48 26.5089 209.776 26.0444 209.349 25.4686L209 25L208.724 25.3973C208.295 26.0168 207.55 26.5155 206.623 26.8053L206 27.0002L206.644 27.2158C207.416 27.4746 208.056 27.8814 208.48 28.3842L209 29L209.399 28.4968C209.797 27.9952 210.407 27.5822 211.153 27.3097L212 27.0002L211.347 26.7892Z" fill="#E8E9EB"/>
<path d="M213.238 42.3829C201.349 49.7117 206.313 58.9422 212.068 62.8534" stroke="#E8E9EB"/>
</g>
<ellipse opacity="0.4" cx="86.9947" cy="17.2794" rx="7.53055" ry="9.91302" transform="rotate(7.86448 86.9947 17.2794)" fill="#CED8E5"/>
<ellipse opacity="0.4" cx="83.8518" cy="43.704" rx="7.53055" ry="9.91302" transform="rotate(-172.136 83.8518 43.704)" fill="#CED8E5"/>
<path d="M82.263 25.1273C85.1161 22.9668 89.1804 23.5282 91.3409 26.3813L95.2815 31.5849L90.0921 35.5147C87.239 37.6752 83.1747 37.1138 81.0142 34.2607L77.0736 29.0571L82.263 25.1273Z" fill="#A8B7C5"/>
<mask id="mask1_11611_6057" style="mask-type:luminance" maskUnits="userSpaceOnUse" x="77" y="23" width="19" height="14">
<path d="M82.263 25.1273C85.1161 22.9668 89.1804 23.5282 91.3409 26.3813L95.2815 31.5849L90.0921 35.5147C87.239 37.6752 83.1747 37.1138 81.0142 34.2607L77.0736 29.0571L82.263 25.1273Z" fill="white"/>
</mask>
<g mask="url(#mask1_11611_6057)">
<rect x="83.1729" y="21.5801" width="2.05379" height="15.0404" transform="rotate(7.86448 83.1729 21.5801)" fill="#DDE5F2"/>
<path fill-rule="evenodd" clip-rule="evenodd" d="M88.3791 22.7915L90.4138 23.0723L88.3544 37.9694L86.3197 37.6886L88.3791 22.7915Z" fill="#DDE5F2"/>
</g>
<path d="M102.095 35.1878L106.059 38.4529" stroke="#8696C5" stroke-width="0.72"/>
<path d="M102.489 32.3139L107.593 30.8601" stroke="#8696C5" stroke-width="0.72"/>
<ellipse cx="97.612" cy="32.3969" rx="5.47676" ry="5.46925" transform="rotate(52.8645 97.612 32.3969)" fill="#8B9AA8"/>
</svg>
