<svg width="300" height="300" viewBox="0 0 300 300" fill="none" xmlns="http://www.w3.org/2000/svg">
<mask id="mask0_6834_13911" style="mask-type:luminance" maskUnits="userSpaceOnUse" x="0" y="0" width="300" height="300">
<rect width="300" height="300" fill="white"/>
</mask>
<g mask="url(#mask0_6834_13911)">
<path d="M306.828 276.298C314.064 261.979 293.384 190.384 149.999 190.384C46.5036 190.384 -0.997959 248.986 9.50368 278.685" fill="url(#paint0_radial_6834_13911)"/>
<mask id="mask1_6834_13911" style="mask-type:luminance" maskUnits="userSpaceOnUse" x="8" y="190" width="301" height="89">
<path d="M306.828 276.298C314.064 261.979 293.384 190.384 149.999 190.384C46.5036 190.384 -0.997959 248.986 9.50368 278.685" fill="white"/>
</mask>
<g mask="url(#mask1_6834_13911)">
<ellipse opacity="0.671968" cx="127.886" cy="230.533" rx="7.88551" ry="4.38001" fill="url(#paint1_linear_6834_13911)"/>
<ellipse opacity="0.451707" cx="212.057" cy="241.062" rx="12.4416" ry="6.83282" fill="url(#paint2_linear_6834_13911)"/>
<ellipse opacity="0.729957" cx="66.7795" cy="205.626" rx="12.4416" ry="6.83282" fill="url(#paint3_linear_6834_13911)"/>
</g>
<path opacity="0.716378" d="M108.765 198.646C103.93 204.118 123.065 209.174 158.269 210.361C196.605 220.806 214.026 223.639 221.068 218.24C228.11 212.842 197.88 195.997 174.214 190.674C150.547 185.352 137.546 188.801 123.036 192.626C121.072 193.144 122.046 192.748 117.589 194.244C113.132 195.741 109.941 197.315 108.765 198.646Z" fill="url(#paint4_linear_6834_13911)"/>
<path d="M160.576 167.682C160.576 167.682 145.735 184.216 154.821 194.41C143.25 195.139 135.631 200.662 135.631 200.662L129.33 177.937L160.576 167.682Z" fill="url(#paint5_linear_6834_13911)"/>
<path d="M136.09 199.424C136.09 199.424 124.54 194.494 119.924 194.486C115.307 194.478 129.589 177.209 129.589 177.209L137.934 197.842L136.09 199.424Z" fill="url(#paint6_linear_6834_13911)"/>
<path fill-rule="evenodd" clip-rule="evenodd" d="M46.2031 175.474C76.3892 205.307 125.106 205.137 155.233 175.01C185.36 144.883 185.53 96.1661 155.697 65.98L46.2031 175.474Z" fill="url(#paint7_linear_6834_13911)"/>
<ellipse cx="101.278" cy="121.706" rx="17.1108" ry="77.4238" transform="rotate(45 101.278 121.706)" fill="url(#paint8_linear_6834_13911)"/>
<mask id="mask2_6834_13911" style="mask-type:luminance" maskUnits="userSpaceOnUse" x="45" y="65" width="113" height="113">
<ellipse cx="101.278" cy="121.706" rx="17.1108" ry="77.4238" transform="rotate(45 101.278 121.706)" fill="white"/>
</mask>
<g mask="url(#mask2_6834_13911)">
<path d="M123.574 126.631L92.1928 111.513L104.306 142.913" fill="url(#paint9_linear_6834_13911)"/>
</g>
<ellipse cx="89.1769" cy="108.955" rx="11.0605" ry="11.0989" transform="rotate(-45 89.1769 108.955)" fill="url(#paint10_linear_6834_13911)"/>
<path fill-rule="evenodd" clip-rule="evenodd" d="M54.0178 100.165C54.5597 100.166 55.0409 99.9263 55.4015 99.5657C55.8222 99.145 56.032 98.5734 56.0009 97.9412C55.6601 91.9507 57.9081 86.0847 62.1455 81.8474C66.3227 77.6701 72.1285 75.422 78.0587 75.7025C79.2327 75.7345 80.2547 74.8331 80.2829 73.6592C80.3111 72.4854 79.4064 71.4605 78.2324 71.4285C71.1282 71.116 64.1492 73.8137 59.1305 78.8324C54.0518 83.9112 51.3842 90.9805 51.757 98.1451C51.8492 99.3191 52.8441 100.254 54.0178 100.165ZM67.159 104.112C67.6803 104.037 68.1357 103.837 68.4634 103.509C68.8806 103.092 69.1362 102.454 69.0513 101.773C68.6354 98.6158 69.6407 95.5687 71.7862 93.4232C73.9018 91.3076 76.8872 90.3002 79.9806 90.6523C81.1572 90.8157 82.2064 89.9578 82.2579 88.7578C82.3413 87.5898 81.4098 86.4795 80.2035 86.3459C75.842 85.8581 71.6075 87.2851 68.6278 90.2649C65.5586 93.334 64.1337 97.6302 64.7172 102.087C64.8806 103.264 65.959 104.163 67.159 104.112Z" fill="url(#paint11_linear_6834_13911)"/>
<path d="M39.0728 97.5825C38.7138 97.9416 38.2355 98.1814 37.668 98.2124C36.5032 98.2445 35.5492 97.3504 35.4619 96.1858C35.0941 85.5845 39.2055 75.2135 46.7161 67.7029C50.5091 63.9099 54.9352 61.0073 59.7585 59.1022C60.1368 58.9058 63.3676 58.4497 63.8317 59.8355C64.2957 61.2212 61.2026 63.1158 61.2026 63.1158C56.9607 64.8115 53.0663 67.3738 49.7266 70.7135C43.0539 77.3862 39.4225 86.6214 39.7327 96.088C39.7019 96.5957 39.4618 97.1935 39.0728 97.5825Z" fill="url(#paint12_linear_6834_13911)"/>
<mask id="mask3_6834_13911" style="mask-type:luminance" maskUnits="userSpaceOnUse" x="35" y="58" width="29" height="41">
<path d="M39.0728 97.5825C38.7138 97.9416 38.2355 98.1814 37.668 98.2124C36.5032 98.2445 35.5492 97.3504 35.4619 96.1858C35.0941 85.5845 39.2055 75.2135 46.7161 67.7029C50.5091 63.9099 54.9352 61.0073 59.7585 59.1022C60.1368 58.9058 63.3676 58.4497 63.8317 59.8355C64.2957 61.2212 61.2026 63.1158 61.2026 63.1158C56.9607 64.8115 53.0663 67.3738 49.7266 70.7135C43.0539 77.3862 39.4225 86.6214 39.7327 96.088C39.7019 96.5957 39.4618 97.1935 39.0728 97.5825Z" fill="white"/>
</mask>
<g mask="url(#mask3_6834_13911)">
</g>
<path fill-rule="evenodd" clip-rule="evenodd" d="M80.734 53.8364C80.0978 53.2003 79.0664 53.2003 78.4303 53.8364L74.2071 58.0596L69.9844 53.8368C69.3482 53.2007 68.3168 53.2007 67.6807 53.8368C67.0445 54.473 67.0445 55.5044 67.6807 56.1405L71.9034 60.3633L67.6797 64.587C67.0435 65.2231 67.0435 66.2545 67.6797 66.8907C68.3158 67.5268 69.3472 67.5268 69.9834 66.8907L74.2071 62.667L78.4313 66.8911C79.0674 67.5272 80.0988 67.5272 80.735 66.8911C81.3711 66.2549 81.3711 65.2235 80.735 64.5874L76.5108 60.3633L80.734 56.1401C81.3701 55.504 81.3701 54.4726 80.734 53.8364Z" fill="#D3D3D3"/>
<path d="M199.508 173.449C199.508 173.449 198.748 175.668 198.748 177.228C197.988 190.811 199.872 214.956 199.872 214.956H202.799L207.12 179.635L212.976 214.956H215.856C215.856 214.956 216.236 191.566 215.095 177.228C215.095 175.684 214.432 174.204 214.432 174.204L199.508 173.449Z" fill="url(#paint13_linear_6834_13911)"/>
<path d="M194.566 154.713L190.869 152.096L190.904 150.058L200.296 144.667L202.633 141.915L206.106 139.71L206.337 140.092L203.76 142.69L202.74 142.822C202.74 142.822 202.72 143.241 202.72 143.954C202.72 144.667 202.183 145.454 202.183 145.454L194.819 150.881L196.405 151.671L194.566 154.713Z" fill="#FFE9E9"/>
<path d="M215.475 159.975L218.389 163.384L219.782 164.126L230.681 154.266L230.232 151.294L219.782 159.975L217.376 157.76L215.475 159.975Z" fill="#FFE9E9"/>
<path d="M230.388 154.313L235.067 152.713L236.003 151.792V149.95C236.003 149.95 235.535 149.029 235.067 149.029C234.599 149.029 230.388 150.871 230.388 150.871C230.388 150.871 229.92 152.253 229.92 152.713C229.92 153.174 230.388 154.313 230.388 154.313Z" fill="#FFE9E9"/>
<path d="M232.198 144.5H235.247C235.665 144.5 236.004 144.839 236.004 145.257V152.802C236.004 153.219 235.665 153.558 235.247 153.558H232.198C231.78 153.558 231.442 153.219 231.442 152.802V145.257C231.442 144.839 231.78 144.5 232.198 144.5Z" fill="#E9E9E9"/>
<path d="M230.411 149.155C230.411 149.155 232.373 148.274 232.863 148.274C233.354 148.274 231.392 150.162 231.392 150.162C231.392 150.162 231.392 152.049 230.411 152.049C229.43 152.049 230.411 149.155 230.411 149.155Z" fill="#FFE9E9"/>
<path d="M218.67 157.332L215.648 161.106L213.49 159.119C213.49 159.119 214.388 164.985 214.785 167.9C215.181 170.815 214.785 175.592 214.785 175.592C214.785 175.592 209.681 176.457 206.582 176.686C203.483 176.914 199.074 175.515 199.074 175.515C199.074 175.515 197.839 166.39 199.074 157.194L193.807 155.258L196.088 151.016C196.088 151.016 197.839 151.671 199.889 151.887C201.939 152.104 203.691 151.887 203.691 151.887L209.393 151.293C209.393 151.293 213.104 151.485 213.955 152.327C214.807 153.169 218.67 157.332 218.67 157.332Z" fill="url(#paint14_linear_6834_13911)"/>
<path fill-rule="evenodd" clip-rule="evenodd" d="M208.012 147.143H204.795V151.766V151.766H204.795C204.817 151.799 206.082 153.761 206.082 154.412C206.082 155.064 207.987 151.809 208.012 151.766H208.012V151.766V147.143Z" fill="#FECECD"/>
<ellipse cx="206.218" cy="146.432" rx="2.88999" ry="4.5" fill="#FFE9E9"/>
<path fill-rule="evenodd" clip-rule="evenodd" d="M203.047 146.932C203.278 146.074 203.278 144.182 203.74 144.121C204.203 144.059 205.127 144.417 206.052 143.722C206.514 143.341 206.746 143.293 206.746 143.101C209.058 143.558 207.675 144.935 208.826 146.453C208.947 146.611 209.289 146.453 209.289 146.453C209.289 146.453 209.289 142.717 209.058 142.383C208.826 142.05 207.902 140.708 207.439 141.665C207.439 141.186 206.514 140.692 205.59 141.059C204.665 141.426 203.278 142.144 203.047 143.101C202.815 144.059 202.584 145.974 203.047 146.932Z" fill="#513450"/>
<path d="M200.514 214.701L199.584 215.958C199.041 216.692 198.748 217.581 198.748 218.494C198.748 218.552 198.795 218.598 198.852 218.598H203.215C203.458 218.598 203.655 218.401 203.655 218.159C203.655 217.166 203.43 216.185 202.998 215.291L202.713 214.701H200.514Z" fill="#677285"/>
<path d="M215.574 214.701L216.504 215.958C217.047 216.692 217.34 217.581 217.34 218.494C217.34 218.552 217.294 218.598 217.236 218.598H212.873C212.63 218.598 212.434 218.401 212.434 218.159C212.434 217.166 212.658 216.185 213.09 215.291L213.375 214.701H215.574Z" fill="#677285"/>
</g>
<defs>
<radialGradient id="paint0_radial_6834_13911" cx="0" cy="0" r="1" gradientUnits="userSpaceOnUse" gradientTransform="translate(138.187 221.007) rotate(-90) scale(51.3403 536.198)">
<stop stop-color="#EBEDF0" stop-opacity="0.24"/>
<stop offset="0.536775" stop-color="#EBEDF0" stop-opacity="0.845525"/>
<stop offset="1" stop-color="#E0E4E7" stop-opacity="0.01"/>
</radialGradient>
<linearGradient id="paint1_linear_6834_13911" x1="121.538" y1="229.372" x2="123.941" y2="234.51" gradientUnits="userSpaceOnUse">
<stop stop-color="#E1E7EA"/>
<stop offset="1" stop-color="#D0D6DC"/>
</linearGradient>
<linearGradient id="paint2_linear_6834_13911" x1="201.61" y1="240.423" x2="206.006" y2="249.593" gradientUnits="userSpaceOnUse">
<stop stop-color="#E1E7EA"/>
<stop offset="1" stop-color="#D0D6DC"/>
</linearGradient>
<linearGradient id="paint3_linear_6834_13911" x1="58.8465" y1="205.736" x2="61.3338" y2="215.646" gradientUnits="userSpaceOnUse">
<stop stop-color="#FBFBFB"/>
<stop offset="1" stop-color="#D9DFE3"/>
</linearGradient>
<linearGradient id="paint4_linear_6834_13911" x1="343.483" y1="213.379" x2="338.797" y2="132.938" gradientUnits="userSpaceOnUse">
<stop stop-color="#D5E1F0" stop-opacity="0.01"/>
<stop offset="1" stop-color="#D9DDE2"/>
</linearGradient>
<linearGradient id="paint5_linear_6834_13911" x1="123.431" y1="186.907" x2="149.037" y2="198.038" gradientUnits="userSpaceOnUse">
<stop stop-color="#F8FBFF"/>
<stop offset="1" stop-color="#D9DDE2"/>
</linearGradient>
<linearGradient id="paint6_linear_6834_13911" x1="125.953" y1="203.406" x2="139.891" y2="191.472" gradientUnits="userSpaceOnUse">
<stop stop-color="#F8FBFF"/>
<stop offset="1" stop-color="#D9DDE2"/>
</linearGradient>
<linearGradient id="paint7_linear_6834_13911" x1="79.3044" y1="226.896" x2="196.675" y2="142.685" gradientUnits="userSpaceOnUse">
<stop stop-color="#F8FBFF"/>
<stop offset="1" stop-color="#D9DDE2"/>
</linearGradient>
<linearGradient id="paint8_linear_6834_13911" x1="93.4968" y1="-1.0677" x2="24.806" y2="24.8495" gradientUnits="userSpaceOnUse">
<stop stop-color="#E6ECF3"/>
<stop offset="1" stop-color="#D9DDE2"/>
</linearGradient>
<linearGradient id="paint9_linear_6834_13911" x1="98.2958" y1="139.216" x2="117.221" y2="124.787" gradientUnits="userSpaceOnUse">
<stop stop-color="white"/>
<stop offset="1" stop-color="#CCD7E7"/>
</linearGradient>
<linearGradient id="paint10_linear_6834_13911" x1="74.0514" y1="105.521" x2="87.6108" y2="123.164" gradientUnits="userSpaceOnUse">
<stop stop-color="#FDFDFD"/>
<stop offset="1" stop-color="#D7DBE0"/>
</linearGradient>
<linearGradient id="paint11_linear_6834_13911" x1="107.867" y1="61.0076" x2="70.2227" y2="42.1462" gradientUnits="userSpaceOnUse">
<stop stop-color="#EEEEEE"/>
<stop offset="1" stop-color="#D8D8D8"/>
</linearGradient>
<linearGradient id="paint12_linear_6834_13911" x1="92.9216" y1="41.7081" x2="69.4604" y2="25.4479" gradientUnits="userSpaceOnUse">
<stop stop-color="#EEEEEE"/>
<stop offset="1" stop-color="#D8D8D8"/>
</linearGradient>
<linearGradient id="paint13_linear_6834_13911" x1="215.885" y1="214.956" x2="215.885" y2="173.76" gradientUnits="userSpaceOnUse">
<stop stop-color="#A1A7B8"/>
<stop offset="1" stop-color="#7B8195"/>
</linearGradient>
<linearGradient id="paint14_linear_6834_13911" x1="231.248" y1="162.751" x2="209.711" y2="189.689" gradientUnits="userSpaceOnUse">
<stop stop-color="#E5E9F0"/>
<stop offset="1" stop-color="#D2DAE8"/>
</linearGradient>
</defs>
</svg>
