<svg width="300" height="245" viewBox="0 0 300 245" fill="none" xmlns="http://www.w3.org/2000/svg">
<path d="M298.752 242.53C305.987 228.211 285.308 156.615 141.923 156.615C38.4274 156.615 -9.07413 215.217 1.42751 244.916" fill="url(#paint0_radial_6834_18040)"/>
<mask id="mask0_6834_18040" style="mask-type:luminance" maskUnits="userSpaceOnUse" x="0" y="156" width="300" height="89">
<path d="M298.752 242.53C305.987 228.211 285.308 156.615 141.923 156.615C38.4274 156.615 -9.07413 215.217 1.42751 244.916" fill="white"/>
</mask>
<g mask="url(#mask0_6834_18040)">
<ellipse opacity="0.671968" cx="119.809" cy="196.764" rx="7.88551" ry="4.38001" fill="url(#paint1_linear_6834_18040)"/>
<ellipse opacity="0.729957" cx="200.292" cy="190.078" rx="12.4416" ry="6.83282" fill="url(#paint2_linear_6834_18040)"/>
<ellipse opacity="0.729957" cx="58.7033" cy="171.858" rx="12.4416" ry="6.83282" fill="url(#paint3_linear_6834_18040)"/>
</g>
<g opacity="0.320685">
<ellipse cx="232.689" cy="37.1958" rx="8.41121" ry="8.40963" fill="url(#paint4_linear_6834_18040)"/>
<path d="M227.413 30.5266C223.803 30.0177 221.165 30.4166 220.669 31.7775C219.875 33.9597 224.893 37.7891 231.877 40.3307C238.861 42.8723 245.167 43.1637 245.962 40.9815C246.462 39.6084 244.171 37.6873 241.026 35.7411" stroke="url(#paint5_linear_6834_18040)" stroke-width="4.20561"/>
<path d="M241.117 37.1958C241.117 32.5513 237.352 28.7861 232.706 28.7861C228.061 28.7861 225.151 31.7556 224.551 35.1039C224.551 35.1039 229.386 38.1308 231.618 38.7814C232.33 38.9889 233.036 39.2581 233.755 39.4967C234.559 39.7636 235.378 39.999 236.206 40.2033C236.773 40.343 237.55 40.5591 238.276 40.694C239.233 40.8719 240.09 40.9513 240.157 40.9513C240.276 40.9513 240.406 40.4226 240.674 39.8064C240.941 39.1902 241.117 37.1958 241.117 37.1958Z" fill="url(#paint6_linear_6834_18040)"/>
</g>
<circle opacity="0.418364" cx="47.8846" cy="86.8077" r="9.80769" fill="url(#paint7_linear_6834_18040)"/>
<ellipse opacity="0.5" cx="154.038" cy="170.462" rx="29.4231" ry="8.07692" fill="url(#paint8_linear_6834_18040)"/>
<path d="M142.759 4.14062L146.011 5.32454L85.8289 170.674C85.502 171.573 84.5088 172.036 83.6106 171.709C82.7124 171.382 82.2492 170.389 82.5762 169.49L142.759 4.14062Z" fill="#D8D8D8"/>
<path d="M142.676 4.2207L168.219 21.0498C170.319 22.4332 172.664 23.4015 175.128 23.9022C188.464 26.6118 197.158 39.5207 194.656 52.8968L188.622 85.1553C188.594 85.3047 188.382 85.3091 188.346 85.1616C185.546 73.8708 174.894 66.2702 163.313 67.3633C158.037 67.8612 152.799 66.0807 148.92 62.4702L128.42 43.3911L142.676 4.2207Z" fill="#E57A77"/>
<circle cx="144.107" cy="3.66483" r="2.30769" transform="rotate(20 144.107 3.66483)" fill="#D8D8D8"/>
<path d="M105.462 103.034C105.462 103.034 107.192 102.168 107.192 102.457C107.192 102.745 107.192 105.918 107.192 105.918L106.038 106.495L105.462 103.034Z" fill="#FFE9E9"/>
<path d="M138.242 160.813C138.242 160.813 137.66 158.692 136.129 158.554C134.598 158.416 130.285 162.979 129.383 164.863C128.481 166.747 130.944 169.388 133.756 166.85C136.568 164.312 138.242 160.813 138.242 160.813Z" fill="#677285"/>
<path d="M140.044 167.003L138.285 162.097C137.577 160.121 134.885 159.869 133.823 161.68C133.611 162.041 133.494 162.447 133.5 162.866C133.53 164.85 133.854 170.853 136.666 171.662C140.044 172.634 140.044 167.003 140.044 167.003Z" fill="url(#paint9_linear_6834_18040)"/>
<path d="M161.758 160.813C161.758 160.813 162.34 158.692 163.871 158.554C165.402 158.416 169.715 162.979 170.617 164.863C171.519 166.747 169.056 169.388 166.244 166.85C163.432 164.312 161.758 160.813 161.758 160.813Z" fill="#677285"/>
<path d="M159.956 167.003L161.715 162.097C162.423 160.121 165.115 159.869 166.177 161.68C166.389 162.041 166.506 162.447 166.5 162.866C166.47 164.85 166.146 170.853 163.334 171.662C159.956 172.634 159.956 167.003 159.956 167.003Z" fill="url(#paint10_linear_6834_18040)"/>
<path d="M140.539 152.268C140.539 152.268 139.574 154.163 139.574 155.495C138.609 157.656 137.019 160.565 134.267 166.63C132.463 170.605 135.716 171.659 138.173 171.913C139.708 172.072 141.178 171.436 142.371 170.458L149.734 164.423L158.496 171.658C160.085 172.971 162.385 172.962 163.964 171.637C165.588 170.274 166.012 167.901 165.076 165.999C164.025 163.862 162.463 160.513 160.322 155.495C160.322 154.177 159.48 152.913 159.48 152.913L140.539 152.268Z" fill="url(#paint11_linear_6834_18040)"/>
<path d="M161.539 137.269C163.112 139.568 162.692 145.316 162.692 145.316H158.077L159.921 157.71C160.01 158.313 159.674 158.896 159.102 159.105C157.039 159.86 152.152 161.537 149.008 161.723C145.855 161.91 140.502 160.276 138.245 159.529C137.635 159.327 137.289 158.708 137.459 158.088C137.952 156.296 139.252 152.203 142.362 145.316C143.325 146.443 137.885 145.316 137.885 145.316C137.885 145.316 138.224 140.198 139.615 137.269C141.007 134.341 144.231 132.385 144.231 132.385L152.384 131.146C152.384 131.146 155.769 131.808 157.5 132.73C159.231 133.652 159.965 134.97 161.539 137.269Z" fill="url(#paint12_linear_6834_18040)"/>
<path d="M162.256 145.293L162.073 150.761L161.453 153.497L157.193 171.072L157.872 172.538L158.312 174.442L157.872 175.654L156.719 175.223L154.411 173.346L153.996 172.1C153.893 171.791 153.925 171.453 154.085 171.17L155.216 169.159L158.312 152.751L158 145.5L162.256 145.293Z" fill="#FDE7E6"/>
<path d="M138 145.5L138.498 150.761L139.118 153.497L143.378 171.072L142.699 172.538L142.26 174.442L142.699 175.654L143.853 175.223L146.16 173.346L146.576 172.101C146.679 171.792 146.646 171.454 146.486 171.17L145.355 169.159L142.26 152.751L142.5 145.5L138 145.5Z" fill="#FDE7E6"/>
<path fill-rule="evenodd" clip-rule="evenodd" d="M151.891 126.672H147.346V132.762C147.346 132.762 149.164 135.383 149.164 136.248C149.164 137.113 151.891 132.762 151.891 132.762V126.672Z" fill="#FECECD"/>
<ellipse cx="149.355" cy="125.664" rx="4.02909" ry="6" fill="#FFE9E9"/>
<path fill-rule="evenodd" clip-rule="evenodd" d="M144.932 126.664C145.254 125.52 145.254 122.998 145.899 122.916C146.544 122.833 147.833 123.311 149.122 122.384C149.767 121.876 150.089 121.812 150.089 121.557C153.313 122.165 151.385 124.002 152.99 126.025C153.158 126.236 153.635 126.025 153.635 126.025C153.635 126.025 153.635 121.044 153.313 120.599C152.99 120.155 151.701 118.365 151.056 119.642C151.056 119.003 149.767 118.345 148.478 118.833C147.188 119.322 145.254 120.28 144.932 121.557C144.61 122.833 144.287 125.387 144.932 126.664Z" fill="#513450"/>
<defs>
<radialGradient id="paint0_radial_6834_18040" cx="0" cy="0" r="1" gradientUnits="userSpaceOnUse" gradientTransform="translate(130.111 187.238) rotate(-90) scale(51.3403 536.198)">
<stop stop-color="#EBEDF0" stop-opacity="0.24"/>
<stop offset="0.536775" stop-color="#EBEDF0" stop-opacity="0.845525"/>
<stop offset="1" stop-color="#E0E4E7" stop-opacity="0.01"/>
</radialGradient>
<linearGradient id="paint1_linear_6834_18040" x1="113.461" y1="195.603" x2="115.864" y2="200.741" gradientUnits="userSpaceOnUse">
<stop stop-color="#E1E7EA"/>
<stop offset="1" stop-color="#D0D6DC"/>
</linearGradient>
<linearGradient id="paint2_linear_6834_18040" x1="189.845" y1="189.44" x2="194.241" y2="198.609" gradientUnits="userSpaceOnUse">
<stop stop-color="#E1E7EA"/>
<stop offset="1" stop-color="#D0D6DC"/>
</linearGradient>
<linearGradient id="paint3_linear_6834_18040" x1="50.7703" y1="171.968" x2="53.2577" y2="181.878" gradientUnits="userSpaceOnUse">
<stop stop-color="#FBFBFB"/>
<stop offset="1" stop-color="#D9DFE3"/>
</linearGradient>
<linearGradient id="paint4_linear_6834_18040" x1="221.199" y1="31.4049" x2="225.404" y2="45.945" gradientUnits="userSpaceOnUse">
<stop stop-color="#ECECEC"/>
<stop offset="0.717538" stop-color="#E1E7EA"/>
<stop offset="1" stop-color="#BCC3CA"/>
</linearGradient>
<linearGradient id="paint5_linear_6834_18040" x1="227.077" y1="37.3777" x2="244.911" y2="43.8686" gradientUnits="userSpaceOnUse">
<stop stop-color="#BAC6D2"/>
<stop offset="1" stop-color="#7F8F9F"/>
</linearGradient>
<linearGradient id="paint6_linear_6834_18040" x1="229.595" y1="36.472" x2="232.346" y2="42.0284" gradientUnits="userSpaceOnUse">
<stop stop-color="#E1E7EA"/>
<stop offset="1" stop-color="#D0D6DC"/>
</linearGradient>
<linearGradient id="paint7_linear_6834_18040" x1="60.7784" y1="89.7187" x2="50.9851" y2="73.1795" gradientUnits="userSpaceOnUse">
<stop stop-color="#DAE2E6"/>
<stop offset="0.58" stop-color="#E3EBEF"/>
<stop offset="1" stop-color="#EDF6F9"/>
</linearGradient>
<linearGradient id="paint8_linear_6834_18040" x1="131.953" y1="171.419" x2="148.479" y2="197.128" gradientUnits="userSpaceOnUse">
<stop stop-color="#C4CDD1"/>
<stop offset="1" stop-color="#C6CFD3" stop-opacity="0.01"/>
</linearGradient>
<linearGradient id="paint9_linear_6834_18040" x1="140.044" y1="171.805" x2="140.044" y2="158.997" gradientUnits="userSpaceOnUse">
<stop stop-color="#7A87AF"/>
<stop offset="1" stop-color="#444F77"/>
</linearGradient>
<linearGradient id="paint10_linear_6834_18040" x1="159.956" y1="171.805" x2="159.956" y2="158.997" gradientUnits="userSpaceOnUse">
<stop stop-color="#7A87AF"/>
<stop offset="1" stop-color="#444F77"/>
</linearGradient>
<linearGradient id="paint11_linear_6834_18040" x1="165.619" y1="172.606" x2="165.619" y2="152.268" gradientUnits="userSpaceOnUse">
<stop stop-color="#7A87AF"/>
<stop offset="1" stop-color="#444F77"/>
</linearGradient>
<linearGradient id="paint12_linear_6834_18040" x1="175.612" y1="145.116" x2="149.393" y2="173.22" gradientUnits="userSpaceOnUse">
<stop stop-color="#E5E9F0"/>
<stop offset="1" stop-color="#D2DAE8"/>
</linearGradient>
</defs>
</svg>
