<svg width="220" height="178" viewBox="0 0 220 178" fill="none" xmlns="http://www.w3.org/2000/svg">
<circle cx="110" cy="88" r="80" fill="#EEF3F7"/>
<circle cx="26" cy="28" r="8" fill="#E4ECF3"/>
<circle cx="198" cy="134" r="6" fill="#E4ECF3"/>
<circle cx="25" cy="146" r="10" fill="#E4ECF3"/>
<circle cx="210" cy="54" r="10" fill="#E4ECF3"/>
<circle cx="191" cy="19" r="7" fill="#E4ECF3"/>
<g filter="url(#filter0_dd_13375_17546)">
<path d="M110 54.9529L116.912 52.0578L110.001 55.002V137.432L173.69 110.743V28.2767L174 28.1466L173.69 28.009V27.8705L173.53 27.9384L110.503 0L46 27.4765L46.3053 27.6076L46 109.74L110 137.383L110 54.9529Z" fill="#F9FAFB"/>
<path d="M110 54.9531V137.383L46 109.74L46.3053 27.6077L110 54.9531Z" fill="url(#paint0_linear_13375_17546)"/>
<path d="M110.001 55.0021V137.432L173.69 110.744V27.8706L110.001 55.0021Z" fill="url(#paint1_linear_13375_17546)"/>
<path d="M110 54.9529L174 28.1466L110.503 0L46 27.4765L110 54.9529Z" fill="url(#paint2_linear_13375_17546)"/>
<path d="M70.1256 17.1998L133.882 44.9503L134.461 65.173L152.299 57.8126L151.759 37.4622L86.1173 10.3877L70.1256 17.1998Z" fill="#A2B1BF" fill-opacity="0.2"/>
</g>
<g filter="url(#filter1_b_13375_17546)">
<rect x="82" y="104" width="56" height="56" rx="28" fill="#344054" fill-opacity="0.4"/>
<rect x="82" y="104" width="56" height="56" rx="28" fill="url(#paint3_linear_13375_17546)"/>
</g>
<defs>
<filter id="filter0_dd_13375_17546" x="26" y="0" width="168" height="177.432" filterUnits="userSpaceOnUse" color-interpolation-filters="sRGB">
<feFlood flood-opacity="0" result="BackgroundImageFix"/>
<feColorMatrix in="SourceAlpha" type="matrix" values="0 0 0 0 0 0 0 0 0 0 0 0 0 0 0 0 0 0 127 0" result="hardAlpha"/>
<feMorphology radius="4" operator="erode" in="SourceAlpha" result="effect1_dropShadow_13375_17546"/>
<feOffset dy="8"/>
<feGaussianBlur stdDeviation="4"/>
<feColorMatrix type="matrix" values="0 0 0 0 0.0627451 0 0 0 0 0.0941176 0 0 0 0 0.156863 0 0 0 0.03 0"/>
<feBlend mode="normal" in2="BackgroundImageFix" result="effect1_dropShadow_13375_17546"/>
<feColorMatrix in="SourceAlpha" type="matrix" values="0 0 0 0 0 0 0 0 0 0 0 0 0 0 0 0 0 0 127 0" result="hardAlpha"/>
<feMorphology radius="4" operator="erode" in="SourceAlpha" result="effect2_dropShadow_13375_17546"/>
<feOffset dy="20"/>
<feGaussianBlur stdDeviation="12"/>
<feColorMatrix type="matrix" values="0 0 0 0 0.0627451 0 0 0 0 0.0941176 0 0 0 0 0.156863 0 0 0 0.08 0"/>
<feBlend mode="normal" in2="effect1_dropShadow_13375_17546" result="effect2_dropShadow_13375_17546"/>
<feBlend mode="normal" in="SourceGraphic" in2="effect2_dropShadow_13375_17546" result="shape"/>
</filter>
<filter id="filter1_b_13375_17546" x="74" y="96" width="72" height="72" filterUnits="userSpaceOnUse" color-interpolation-filters="sRGB">
<feFlood flood-opacity="0" result="BackgroundImageFix"/>
<feGaussianBlur in="BackgroundImageFix" stdDeviation="4"/>
<feComposite in2="SourceAlpha" operator="in" result="effect1_backgroundBlur_13375_17546"/>
<feBlend mode="normal" in="SourceGraphic" in2="effect1_backgroundBlur_13375_17546" result="shape"/>
</filter>
<linearGradient id="paint0_linear_13375_17546" x1="110" y1="93" x2="46" y2="70" gradientUnits="userSpaceOnUse">
<stop stop-color="#E1EBF3"/>
<stop offset="1" stop-color="#C3D0DD"/>
</linearGradient>
<linearGradient id="paint1_linear_13375_17546" x1="174" y1="74.5" x2="110" y2="102.5" gradientUnits="userSpaceOnUse">
<stop stop-color="#E7F0F7"/>
<stop offset="1" stop-color="#BDCBD9"/>
</linearGradient>
<linearGradient id="paint2_linear_13375_17546" x1="110" y1="0" x2="110" y2="54.9529" gradientUnits="userSpaceOnUse">
<stop stop-color="#F1F6FA"/>
<stop offset="1" stop-color="#DEEAF4"/>
</linearGradient>
<linearGradient id="paint3_linear_13375_17546" x1="110" y1="76" x2="54" y2="132" gradientUnits="userSpaceOnUse">
<stop stop-color="#A8B7C5"/>
<stop offset="1" stop-color="#8B9AA8"/>
</linearGradient>
</defs>
</svg>
