<svg width="20" height="20" viewBox="0 0 20 20" fill="none" xmlns="http://www.w3.org/2000/svg">
<path d="M14.167 9.00371C14.167 8.7157 14.167 8.57169 14.2104 8.44331C14.3364 8.07037 14.6685 7.92563 15.0012 7.77407C15.3753 7.60368 15.5624 7.51849 15.7477 7.5035C15.9581 7.48649 16.1688 7.53181 16.3487 7.63274C16.587 7.76654 16.7533 8.02078 16.9236 8.22751C17.7097 9.18237 18.1028 9.6598 18.2466 10.1863C18.3627 10.6112 18.3627 11.0555 18.2466 11.4804C18.0368 12.2483 17.3741 12.892 16.8835 13.4878C16.6325 13.7926 16.5071 13.945 16.3487 14.0339C16.1688 14.1349 15.9581 14.1802 15.7477 14.1632C15.5624 14.1482 15.3753 14.063 15.0012 13.8926C14.6685 13.741 14.3364 13.5963 14.2104 13.2234C14.167 13.095 14.167 12.951 14.167 12.663V9.00371Z" stroke="#061018" stroke-width="1.5"/>
<path d="M5.83398 9.00385C5.83398 8.64114 5.8238 8.31517 5.53058 8.06017C5.42392 7.96741 5.28253 7.90301 4.99974 7.77421C4.62566 7.60382 4.43862 7.51863 4.25329 7.50364C3.69725 7.45867 3.39808 7.83817 3.07742 8.22765C2.29128 9.18251 1.8982 9.65994 1.75437 10.1864C1.6383 10.6113 1.6383 11.0556 1.75437 11.4805C1.96415 12.2484 2.62692 12.8921 3.11749 13.488C3.42672 13.8636 3.72212 14.2063 4.25329 14.1633C4.43862 14.1483 4.62566 14.0631 4.99974 13.8927C5.28253 13.7639 5.42392 13.6995 5.53058 13.6068C5.8238 13.3518 5.83398 13.0258 5.83398 12.6631V9.00385Z" stroke="#061018" stroke-width="1.5"/>
<path d="M4.16699 7.5C4.16699 4.73858 6.77866 2.5 10.0003 2.5C13.222 2.5 15.8337 4.73858 15.8337 7.5" stroke="#061018" stroke-width="1.5" stroke-linecap="square" stroke-linejoin="round"/>
<path d="M15.834 14.167V14.8337C15.834 16.3064 14.3416 17.5003 12.5007 17.5003H10.834" stroke="#061018" stroke-width="1.5" stroke-linecap="round" stroke-linejoin="round"/>
</svg>
